<?xml version="1.0" encoding="UTF-8"?>
<svg width="57px" height="22px" viewBox="0 0 57 22" version="1.1" xmlns="http://www.w3.org/2000/svg" xmlns:xlink="http://www.w3.org/1999/xlink">
    <!-- Generator: Sketch 60.1 (88133) - https://sketch.com -->
    <title>LOGO tagip 2017 SVG</title>
    <desc>Created with Sketch.</desc>
    <g id="TAG-IP-ACCUEIL" stroke="none" stroke-width="1" fill="none" fill-rule="evenodd">
        <g id="02-st-votre_cercle-mobile-copy" transform="translate(-11.000000, -28.000000)" fill="#FFFFFF">
            <g id="LOGO-tagip-2017-SVG" transform="translate(11.000000, 28.000000)">
                <path d="M50.3504663,5.0985 C48.5243187,3.5481905 46.2162873,2.70387826 43.8353313,2.71516667 C38.4548344,2.71516667 34.0788896,6.9025 33.9686779,12.111 C33.9686779,11.9698333 33.9596438,11.8305 33.9596438,11.6893333 C33.9585618,7.64963916 36.3016122,3.9880273 39.9387633,2.34543985 C43.5759144,0.702852392 47.8251865,1.38728072 50.7822791,4.092 L50.3504663,5.0985 Z" id="Path"></path>
                <path d="M54.1157427,11.6838333 C54.1157427,17.3316813 49.6036365,21.9101667 44.0376871,21.9101667 L43.9618037,21.9101667 C49.3531411,21.8441667 53.7037914,17.5725 53.7037914,12.3108333 C53.7032186,10.1736253 52.9771279,8.10185129 51.6477117,6.44416667 L52.4932699,6.11966667 C53.5550537,7.77518842 54.1188187,9.70859959 54.1157427,11.6838333 L54.1157427,11.6838333 Z" id="Path"></path>
                <polygon id="Path" points="56.7698436 3.96733333 52.2222577 5.7145 51.3261104 6.05916667 50.2836166 6.45883333 50.7226564 5.43216667 51.1454356 4.43483333 53.0371012 0"></polygon>
                <polygon id="Path" points="8.8910092 9.81566667 8.8910092 10.6333333 5.02095399 10.6333333 5.02095399 17.6733333 4.05253681 17.6733333 4.05253681 10.6333333 0.180674847 10.6333333 0.180674847 9.81566667"></polygon>
                <path d="M5.20162883,17.8566667 L3.87186196,17.8566667 L3.87186196,10.8166667 L0,10.8166667 L0,9.63233333 L9.07168405,9.63233333 L9.07168405,10.8166667 L5.20162883,10.8166667 L5.20162883,17.8566667 Z M4.23321166,17.49 L4.84027914,17.49 L4.84027914,10.45 L8.71033436,10.45 L8.71033436,9.999 L0.361349693,9.999 L0.361349693,10.45 L4.23321166,10.45 L4.23321166,17.49 Z" id="Shape" fill-rule="nonzero"></path>
                <path d="M16.7051963,15.873 L10.6489755,15.873 L9.63719632,17.6733333 L8.51701227,17.6733333 L12.9345123,9.81566667 L14.3239018,9.81566667 L18.7269479,17.6733333 L17.706135,17.6733333 L16.7051963,15.873 Z M16.248089,15.0553333 L13.6825061,10.472 L11.1078896,15.0553333 L16.248089,15.0553333 L16.248089,15.0553333 Z" id="Shape" fill-rule="nonzero"></path>
                <path d="M19.0377086,17.8566667 L17.6067638,17.8566667 L16.6004049,16.0563333 L10.7537669,16.0563333 L9.74198773,17.8566667 L8.20625153,17.8566667 L12.8279141,9.63233333 L14.4268865,9.63233333 L19.0377086,17.8566667 Z M17.8163466,17.49 L18.4161871,17.49 L14.2191104,9.999 L13.0393037,9.999 L8.82777301,17.49 L9.53240491,17.49 L10.5423773,15.6896667 L16.8027607,15.6896667 L17.8163466,17.49 Z M16.5516227,15.2368333 L10.7971288,15.2368333 L13.6879264,10.0943333 L16.5516227,15.2368333 Z M11.4114233,14.8701667 L15.9282945,14.8701667 L13.6716656,10.8368333 L11.4114233,14.8701667 Z" id="Shape" fill-rule="nonzero"></path>
                <path d="M29.7643742,12.2723333 C29.7762466,11.9432713 29.7322429,11.6145893 29.6342883,11.3006667 C29.5581854,11.0711848 29.4046014,10.87638 29.2006687,10.7506667 C28.9550757,10.6145283 28.6831517,10.5344412 28.4038926,10.516 C28.0750644,10.4817778 27.668546,10.4646667 27.1843374,10.4646667 L24.5916534,10.4646667 C24.1616472,10.4646667 23.8002975,10.4775 23.5076043,10.5031667 C23.2605392,10.5193288 23.0170978,10.5718213 22.7849049,10.659 C22.6047952,10.7255435 22.4477909,10.8440735 22.3332178,11 C22.2172021,11.1756214 22.1395795,11.3744084 22.1055675,11.583 C22.0533132,11.8776986 22.0261119,12.1764085 22.0242638,12.4758333 C22.0182413,12.8363889 22.0158323,13.2611111 22.0170368,13.75 C22.0182413,14.2388889 22.0224571,14.6611667 22.029684,15.0168333 C22.0327625,15.3162776 22.0605633,15.6149335 22.1127945,15.9096667 C22.1463468,16.1177944 22.2226791,16.3164302 22.3368313,16.4926667 C22.448332,16.6462127 22.601532,16.7634404 22.7776779,16.83 C23.0098422,16.9172788 23.2532982,16.9697745 23.5003773,16.9858333 C23.7942751,17.0115 24.1556247,17.0243333 24.5844264,17.0243333 L27.1807239,17.0243333 C27.5565276,17.0243333 27.8805378,17.0139444 28.1527546,16.9931667 C28.3876762,16.9791482 28.6206665,16.9416896 28.8483528,16.8813333 C29.0164054,16.8383489 29.1742827,16.7616771 29.3126871,16.6558333 C29.4318127,16.5576584 29.5259898,16.4319179 29.5873129,16.2891667 C29.6584823,16.1231486 29.7035951,15.9468468 29.7210123,15.7666667 C29.7465375,15.5298453 29.7586025,15.291729 29.7571472,15.0535 L29.7571472,14.564 L25.8834785,14.564 L25.8834785,13.75 L30.7327914,13.75 L30.7327914,15.059 C30.7352408,15.3558877 30.7153084,15.6525306 30.6731687,15.9463333 C30.6384705,16.1916072 30.5659136,16.4298041 30.4581656,16.6521667 C30.357742,16.8564106 30.2183333,17.0383767 30.0480337,17.1875 C29.8548001,17.3485397 29.6344391,17.4727639 29.3976043,17.5541667 C29.0938615,17.6607964 28.7793524,17.7327406 28.4599018,17.7686667 C28.0401171,17.8179822 27.6177569,17.8412477 27.1951779,17.8383333 L24.5916534,17.8383333 C24.0914033,17.8453041 23.5914921,17.8085012 23.0974724,17.7283333 C22.7481557,17.6741456 22.4099979,17.5620388 22.0965337,17.3965 C21.8513953,17.2635716 21.6427564,17.0707654 21.4894663,16.8355 C21.3394264,16.592598 21.2335596,16.324347 21.1768988,16.0435 C21.1071821,15.7050592 21.0690717,15.3607017 21.0630736,15.015 C21.0534376,14.6336667 21.0486196,14.2107778 21.0486196,13.7463333 C21.0486196,13.2818889 21.0534376,12.859 21.0630736,12.4776667 C21.0690717,12.131965 21.1071821,11.7876075 21.1768988,11.4491667 C21.2335596,11.1683196 21.3394264,10.9000686 21.4894663,10.6571667 C21.6426982,10.4218507 21.8513511,10.2290315 22.0965337,10.0961667 C22.4099979,9.93062784 22.7481557,9.81852105 23.0974724,9.76433333 C23.5914921,9.68416549 24.0914033,9.64736257 24.5916534,9.65433333 L27.1825307,9.65433333 C27.6051095,9.65142357 28.0274695,9.67468905 28.4472546,9.724 C28.7662361,9.75976241 29.0805688,9.82982251 29.3849571,9.933 C29.6208594,10.0127281 29.8414883,10.1330378 30.0371933,10.2886667 C30.207165,10.4274605 30.3478733,10.5995431 30.4509387,10.7946667 C30.5577641,11.0012253 30.6304002,11.224198 30.6659417,11.4546667 C30.7078852,11.7251014 30.7278267,11.9985797 30.7255644,12.2723333 L29.7571472,12.2723333 L29.7643742,12.2723333 Z" id="Path"></path>
                <path d="M27.1879509,18.0198333 L24.5916534,18.0198333 C24.0804831,18.0263977 23.5697026,17.9883689 23.0649509,17.9061667 C22.6960269,17.8483092 22.338964,17.729395 22.0080031,17.5541667 C21.7367214,17.4066463 21.5057769,17.1930922 21.3358926,16.9326667 C21.1740043,16.6712535 21.0595763,16.3825265 20.9980307,16.0801667 C20.9261965,15.7302293 20.886878,15.3742247 20.880592,15.0168333 C20.8697515,14.6336667 20.866138,14.2046667 20.866138,13.7426667 C20.866138,13.2806667 20.866138,12.8535 20.880592,12.4685 C20.8868992,12.11111 20.9262175,11.7551074 20.9980307,11.4051667 C21.0596137,11.1028183 21.1740391,10.8140979 21.3358926,10.5526667 C21.5057769,10.2922412 21.7367214,10.078687 22.0080031,9.93116667 C22.3389894,9.75599956 22.6960421,9.63708873 23.0649509,9.57916667 C23.5697026,9.49696444 24.0804831,9.4589356 24.5916534,9.4655 L27.1825307,9.4655 C27.6147376,9.46194776 28.0467542,9.48521339 28.4761626,9.53516667 C28.808042,9.57281836 29.135072,9.64594652 29.4518067,9.75333333 C29.7074176,9.84018804 29.9463865,9.97104316 30.1582454,10.1401667 C30.3465314,10.2949944 30.5025381,10.4863282 30.6171595,10.703 C30.7328773,10.9274386 30.8116084,11.1695847 30.8502301,11.4198333 C30.8941786,11.7005435 30.9153285,11.9844425 30.9134663,12.2686667 L30.9134663,12.452 L29.5836994,12.452 L29.5836994,12.2686667 C29.5959643,11.9584371 29.5556295,11.6483745 29.464454,11.352 C29.4002466,11.1635682 29.2721899,11.0043905 29.1031043,10.9028333 C28.8800104,10.7804854 28.6334711,10.7085624 28.3804049,10.692 C28.0569969,10.659 27.6577055,10.6425 27.1789172,10.6425 L24.5916534,10.6425 C24.1670675,10.6425 23.8075245,10.6553333 23.5202515,10.681 C23.2893782,10.6952414 23.0617642,10.7434102 22.8445276,10.824 C22.7005072,10.8784713 22.5750378,10.973958 22.4831779,11.099 C22.3826293,11.2534526 22.3155073,11.4277884 22.2862423,11.6105 C22.236226,11.8949553 22.2102348,12.1832243 22.2085521,12.4721667 C22.2085521,12.8186667 22.1977117,13.2311667 22.1977117,13.7353333 C22.1977117,14.2395 22.1977117,14.652 22.2103589,14.9966667 C22.2131545,15.2856346 22.239746,15.57386 22.2898558,15.8583333 C22.3190068,16.0413529 22.3854655,16.2161885 22.4849847,16.3716667 C22.5765015,16.4966354 22.7021399,16.5916133 22.8463344,16.6448333 C23.063564,16.7254481 23.2911816,16.7736177 23.5220583,16.7878333 C23.811138,16.8135 24.170681,16.8263333 24.5934601,16.8263333 L27.1897577,16.8263333 C27.5601411,16.8263333 27.8835491,16.8153333 28.1491411,16.7951667 C28.3718452,16.7815519 28.5927109,16.745939 28.8086043,16.6888333 C28.9522386,16.6548138 29.0878985,16.592526 29.2078957,16.5055 C29.3046657,16.427357 29.3815036,16.3267525 29.4319325,16.2121667 C29.4953792,16.0635673 29.5356106,15.9058406 29.5511779,15.7446667 C29.5756766,15.5145233 29.5871382,15.2831428 29.5855061,15.0516667 L29.5855061,14.7473333 L25.7028037,14.7473333 L25.7028037,13.5666667 L30.9134663,13.5666667 L30.9134663,15.059 C30.9154175,15.3657436 30.8942773,15.6721904 30.8502301,15.9756667 C30.8128748,16.24 30.7348359,16.4967395 30.6189663,16.7365 C30.5091395,16.9590585 30.3575483,17.1577188 30.1726994,17.3213333 C29.9583362,17.5002352 29.7133562,17.6375782 29.45,17.7265 C29.1333416,17.8375212 28.8055177,17.912536 28.4725491,17.9501667 C28.0461338,17.9997481 27.6171452,18.0230131 27.1879509,18.0198333 L27.1879509,18.0198333 Z M24.5916534,9.83583333 C24.1017323,9.82874989 23.6121153,9.86432475 23.1281871,9.94216667 C22.7986284,9.9933287 22.479477,10.0985946 22.1832577,10.2538333 C21.9648233,10.3721596 21.7786201,10.5434679 21.6412331,10.7525 C21.5032263,10.9776473 21.4059423,11.2259881 21.3539601,11.4858333 C21.2873685,11.8129008 21.2510755,12.1455723 21.2455552,12.4795 C21.2347147,12.8608333 21.2311012,13.2861667 21.2311012,13.7426667 C21.2311012,14.1991667 21.2311012,14.6263333 21.2455552,15.0058333 C21.2510332,15.3397637 21.2873267,15.6724392 21.3539601,15.9995 C21.4058676,16.2593678 21.5031568,16.5077217 21.6412331,16.7328333 C21.7786201,16.9418654 21.9648233,17.1131737 22.1832577,17.2315 C22.479477,17.3867387 22.7986284,17.4920046 23.1281871,17.5431667 C23.6121153,17.6210086 24.1017323,17.6565834 24.5916534,17.6495 L27.1879509,17.6495 C27.6050771,17.6526521 28.0220047,17.629999 28.4364141,17.5816667 C28.7441161,17.5474571 29.0471075,17.4785884 29.3397883,17.3763333 C29.5536113,17.3037929 29.7530406,17.1932999 29.9287883,17.05 C30.0789202,16.9160159 30.2016886,16.7534458 30.290138,16.5715 C30.3886674,16.3662392 30.455108,16.1466661 30.4870736,15.9206667 C30.5278481,15.6359625 30.5471761,15.3485188 30.5448896,15.0608333 L30.5448896,13.9333333 L26.0641534,13.9333333 L26.0641534,14.3843333 L29.9450491,14.3843333 L29.9450491,15.059 C29.9467805,15.3039433 29.9347159,15.5487869 29.9089141,15.7923333 C29.8893552,15.9914669 29.8393726,16.1862985 29.7607607,16.3698333 C29.6864934,16.5364084 29.5744329,16.6827857 29.4337393,16.797 C29.2766647,16.9157288 29.0979725,17.0017163 28.9079755,17.05 C28.6714414,17.1133491 28.4294074,17.1532583 28.1852761,17.1691667 C27.9106503,17.1893333 27.5782086,17.2003333 27.1987914,17.2003333 L24.5916534,17.2003333 C24.1598405,17.2003333 23.7894571,17.1875 23.4895368,17.1618333 C23.2226348,17.1446558 22.9596615,17.0878282 22.7090215,16.9931667 C22.5008738,16.9133662 22.3200863,16.7738695 22.1886779,16.5916667 C22.0594036,16.3940759 21.9726016,16.1710668 21.9339264,15.9371667 C21.8801643,15.6345595 21.8511574,15.327959 21.8472025,15.0205 C21.8472025,14.6721667 21.8345552,14.245 21.8345552,13.75 C21.8345552,13.255 21.8345552,12.8333333 21.8453957,12.4813333 C21.8474802,12.1739416 21.8752836,11.8672845 21.9285061,11.5646667 C21.9676944,11.3303146 22.0557829,11.1071656 22.1868712,10.9101667 C22.3198267,10.7291717 22.5009907,10.5905042 22.7090215,10.5105 C22.9597124,10.416016 23.2226596,10.359194 23.4895368,10.3418333 C23.7876503,10.3161667 24.1580337,10.3033333 24.5916534,10.3033333 L27.1825307,10.3033333 C27.668546,10.3033333 28.0859049,10.3216667 28.4201534,10.3546667 C28.7256338,10.3761902 29.0228179,10.4650306 29.2910061,10.615 C29.530004,10.7549476 29.7138689,10.9745564 29.8113497,11.2365 C29.9020332,11.5113697 29.9489946,11.7991408 29.9504693,12.089 L30.5575368,12.089 C30.5521355,11.8862946 30.5334243,11.6841799 30.5015276,11.484 C30.4693158,11.273497 30.4034034,11.069754 30.3063988,10.8808333 C30.2164822,10.7077611 30.0936685,10.5544775 29.9450491,10.4298333 C29.7654983,10.287699 29.5632093,10.1779346 29.3470153,10.1053333 C29.0537611,10.0059021 28.7509437,9.93830198 28.4436411,9.90366667 C28.0292317,9.85533431 27.6123041,9.83268119 27.1951779,9.83583333 L24.5916534,9.83583333 L24.5916534,9.83583333 Z" id="Shape" fill-rule="nonzero"></path>
                <polygon id="Path" points="37.8911288 9.81566667 38.859546 9.81566667 38.859546 17.6733333 37.8911288 17.6733333"></polygon>
                <path d="M39.0402209,17.8566667 L37.710454,17.8566667 L37.710454,9.63233333 L39.0402209,9.63233333 L39.0402209,17.8566667 Z M38.0718037,17.49 L38.6788712,17.49 L38.6788712,9.999 L38.0718037,9.999 L38.0718037,17.49 Z" id="Shape" fill-rule="nonzero"></path>
                <path d="M42.0340031,9.81566667 L47.8517331,9.81566667 C48.258563,9.81164736 48.6652502,9.83307688 49.0694816,9.87983333 C49.3485397,9.90754108 49.6233188,9.96909124 49.8879387,10.0631667 C50.074746,10.1300696 50.2444885,10.2384243 50.3847945,10.3803333 C50.5014269,10.5076701 50.5884743,10.6598954 50.639546,10.8258333 C50.6960191,11.0113576 50.7276199,11.2037523 50.7334969,11.3978333 C50.7419284,11.6092778 50.7461442,11.8427222 50.7461442,12.0981667 C50.7461442,12.3536111 50.7401217,12.5980556 50.7280767,12.8315 C50.7195541,13.0396893 50.6805844,13.2454372 50.6124448,13.442 C50.547538,13.6287593 50.4397806,13.7971726 50.2980706,13.9333333 C50.1207776,14.0925126 49.9119257,14.2112906 49.6855828,14.2816667 C49.3598024,14.3842128 49.0243211,14.4518047 48.6846442,14.4833333 C48.1883068,14.535681 47.6894527,14.5595523 47.1904632,14.5548333 L43.0006135,14.5548333 L43.0006135,17.6715 L42.0321963,17.6715 L42.0321963,9.81566667 L42.0340031,9.81566667 Z M43.0006135,13.75 L47.1904632,13.75 C47.6204693,13.75 47.981819,13.7426667 48.2745123,13.728 C48.5171568,13.7183377 48.7587398,13.6901469 48.9972117,13.6436667 C49.1553766,13.6164441 49.3065284,13.5572136 49.4416718,13.4695 C49.551286,13.396054 49.6363409,13.2905684 49.6855828,13.167 C49.7377123,13.0254833 49.7664056,12.8761891 49.7705,12.7251667 C49.7789315,12.5528333 49.7831472,12.3475 49.7831472,12.1091667 C49.7831472,11.8708333 49.7789315,11.6801667 49.7705,11.5371667 C49.7668742,11.3985679 49.7380869,11.2618363 49.6855828,11.1338333 C49.6370148,11.0253655 49.5569583,10.9345364 49.4561258,10.8735 C49.3179697,10.7969487 49.1674552,10.7460389 49.0116656,10.7231667 C48.7727032,10.6825496 48.5311914,10.6592684 48.2889663,10.6535 C47.9950685,10.6437222 47.6337188,10.6388333 47.2049172,10.6388333 L43.0006135,10.6388333 L43.0006135,13.75 Z" id="Shape" fill-rule="nonzero"></path>
                <path d="M43.1812883,17.8566667 L41.8515215,17.8566667 L41.8515215,9.63233333 L47.8499264,9.63233333 C48.2640104,9.62861712 48.6779296,9.65065845 49.0893558,9.69833333 C49.3841591,9.73017133 49.6741175,9.79787998 49.9529816,9.9 C50.1654421,9.97811338 50.3580306,10.103384 50.5166871,10.2666667 C50.651344,10.4140618 50.7519477,10.590047 50.8111871,10.7818333 C50.8722221,10.9834598 50.9062532,11.1925005 50.912365,11.4033333 C50.912365,11.6178333 50.9250123,11.8561667 50.9250123,12.111 C50.9250123,12.3658333 50.9250123,12.6316667 50.9069448,12.8571667 C50.8972434,13.0835037 50.8546253,13.3071427 50.7804724,13.5208333 C50.7037679,13.7301631 50.5800465,13.9184759 50.4191227,14.0708333 C50.2233839,14.2464065 49.9930302,14.3776527 49.7433988,14.4558333 C49.4059172,14.562688 49.0583267,14.6333519 48.7063252,14.6666667 C48.2027935,14.7199446 47.6967061,14.7444277 47.1904632,14.74 L43.1812883,14.74 L43.1812883,17.8566667 L43.1812883,17.8566667 Z M42.2128712,17.49 L42.8199387,17.49 L42.8199387,14.3733333 L47.1904632,14.3733333 C47.6827968,14.3781483 48.1750081,14.3548894 48.6647699,14.3036667 C48.9924017,14.2706346 49.3157493,14.2030473 49.6295736,14.102 C49.8292582,14.0401913 50.0139203,13.9365081 50.1715982,13.7976667 C50.2908497,13.6836202 50.3823847,13.5430422 50.4389969,13.387 C50.5000699,13.2098049 50.5353712,13.0245251 50.5437883,12.837 C50.5546288,12.617 50.5618558,12.3731667 50.5618558,12.1036667 C50.5618558,11.8341667 50.5618558,11.6196667 50.5492086,11.4106667 C50.5441178,11.232824 50.5155577,11.0564761 50.4642914,10.8863333 C50.4213902,10.7462427 50.3478985,10.6177765 50.2492883,10.5105 C50.127358,10.3890728 49.9805354,10.2964279 49.8192822,10.2391667 C49.56845,10.1468251 49.3076281,10.0852764 49.0423804,10.0558333 C48.645924,10.0102962 48.2470881,9.98947936 47.8481196,9.9935 L42.2110644,9.9935 L42.2110644,17.49 L42.2128712,17.49 Z M47.1904632,13.9333333 L42.8199387,13.9333333 L42.8199387,10.45 L47.1904632,10.45 C47.6186626,10.45 47.9872393,10.45 48.2745123,10.4646667 C48.5276171,10.4700824 48.7800095,10.4939775 49.0297331,10.5361667 C49.2079739,10.5654466 49.3794285,10.6275814 49.5356227,10.7195 C49.6674514,10.7995647 49.7720794,10.9185235 49.8355429,11.0605 C49.8974756,11.2092836 49.9317775,11.3683999 49.9367209,11.5298333 C49.9367209,11.693 49.9493681,11.8965 49.9493681,12.1128333 C49.9493681,12.3291667 49.9493681,12.5638333 49.9367209,12.738 C49.9317819,12.909765 49.8988134,13.0795108 49.8391564,13.2403333 C49.7798352,13.39241 49.6781244,13.5236491 49.5464632,13.618 C49.3915033,13.7205386 49.2174929,13.7897942 49.0351534,13.8215 C48.7859527,13.8700664 48.5334958,13.8994832 48.2799325,13.9095 C47.9926595,13.9205 47.6240828,13.9333333 47.1904632,13.9333333 Z M43.1812883,13.5666667 L47.1904632,13.5666667 C47.6186626,13.5666667 47.9800123,13.5666667 48.2745123,13.5446667 C48.5098474,13.5356465 48.7441809,13.5086816 48.9755307,13.464 C49.1089336,13.4411478 49.2366166,13.3919393 49.3513344,13.3191667 C49.4265092,13.2652196 49.4843294,13.1899677 49.5175552,13.1028333 C49.5621298,12.9799799 49.5865438,12.8505394 49.5898252,12.7196667 C49.5898252,12.551 49.6024724,12.353 49.6024724,12.1128333 C49.6024724,11.8726667 49.6024724,11.7058333 49.5898252,11.55 C49.5869191,11.43353 49.5630383,11.3185821 49.519362,11.2108333 C49.4864099,11.1344528 49.4308406,11.0703768 49.3603681,11.0275 C49.2415112,10.9631559 49.1125023,10.9203473 48.9791442,10.901 C48.7473088,10.8621647 48.513045,10.8401091 48.2781258,10.835 C47.9854325,10.8258333 47.6222761,10.8203333 47.1940767,10.8203333 L43.1812883,10.8203333 L43.1812883,13.5666667 Z" id="Shape" fill-rule="nonzero"></path>
            </g>
        </g>
    </g>
</svg>