<?xml version="1.0" encoding="UTF-8"?>
<svg width="172px" height="232px" viewBox="0 0 172 232" version="1.1" xmlns="http://www.w3.org/2000/svg" xmlns:xlink="http://www.w3.org/1999/xlink">
    <!-- Generator: Sketch 60.1 (88133) - https://sketch.com -->
    <title>Group 9</title>
    <desc>Created with Sketch.</desc>
    <defs>
        <filter x="-30.9%" y="-33.9%" width="161.8%" height="167.7%" filterUnits="objectBoundingBox" id="filter-1">
            <feOffset dx="0" dy="2" in="SourceAlpha" result="shadowOffsetOuter1"></feOffset>
            <feGaussianBlur stdDeviation="1.5" in="shadowOffsetOuter1" result="shadowBlurOuter1"></feGaussianBlur>
            <feColorMatrix values="0 0 0 0 0   0 0 0 0 0   0 0 0 0 0  0 0 0 0.5 0" type="matrix" in="shadowBlurOuter1" result="shadowMatrixOuter1"></feColorMatrix>
            <feMerge>
                <feMergeNode in="shadowMatrixOuter1"></feMergeNode>
                <feMergeNode in="SourceGraphic"></feMergeNode>
            </feMerge>
        </filter>
    </defs>
    <g id="TAG-IP-ACCUEIL" stroke="none" stroke-width="1" fill="none" fill-rule="evenodd">
        <g id="03-st-les_avantages" transform="translate(-753.000000, -553.000000)">
            <g id="Group-9" transform="translate(749.000000, 552.000000)">
                <g id="Phone" transform="translate(79.000000, 129.853829) rotate(-16.000000) translate(-79.000000, -129.853829) translate(25.000000, 33.353829)">
                    <path d="M108,17.3 L108,175.3 C107.945389,184.610898 100.410898,192.145389 91.1,192.2 L16.7,192.2 C7.44458615,192.090461 9.09494702e-13,184.556062 9.09494702e-13,175.3 L9.09494702e-13,17.3 C0.0542969034,8.00843226 7.55863392,0.481827176 16.85,0.4 L91.1,0.4 C96.9044244,0.410359902 102.292317,3.41623658 105.35,8.35 C107.068606,11.0196467 107.988075,14.1250231 108,17.3 Z" id="Path" fill="#06274D"></path>
                    <rect id="Rectangle" fill="#FFFFFF" x="2.8" y="19.75" width="102.2" height="149.7"></rect>
                    <rect id="Rectangle" fill="#F7F6F6" x="41.65" y="176.75" width="29.8" height="5.5" rx="2.75"></rect>
                    <circle id="Oval" fill="#F8AB2D" cx="36.85" cy="61" r="10.6"></circle>
                    <path d="M59.7,69.95 L59.7,63.75 C59.6997506,57.7137069 64.5639563,52.8048754 70.6,52.75 C76.6525037,52.8042858 81.5457142,57.6974963 81.6,63.75 L81.6,69.95" id="Path" stroke="#F8AB2D" stroke-width="5.35"></path>
                    <path d="M70,91.25 C70,99.708083 63.1580381,106.572449 54.7,106.6 C46.2479559,106.519159 39.4083263,99.7017365 39.3,91.25" id="Path" stroke="#F8AB2D" stroke-width="5.35"></path>
                </g>
                <g id="Plan-de-travail-28-Copy-2" filter="url(#filter-1)" transform="translate(151.492864, 23.500000) rotate(220.000000) translate(-151.492864, -23.500000) translate(134.492864, 8.000000)" fill-rule="nonzero">
                    <path d="M30.4517949,30.1364286 L18.695641,28.2077857 C17.5738543,28.0247463 16.4305047,28.0247463 15.3087179,28.2077857 L3.55038462,30.1364286 L3.49807692,30.1364286 C2.5295598,30.1364286 1.63473175,29.6110399 1.15058632,28.7588211 C0.666440896,27.9066023 0.666510619,26.8567238 1.15076923,26.0045714 L14.6635897,2.24307143 C15.1481045,1.39152902 16.042772,0.867072034 17.0108974,0.867072034 C17.9790228,0.867072034 18.8736903,1.39152902 19.3582051,2.24307143 L32.8601282,26.0045714 C33.3443868,26.8567238 33.3444565,27.9066023 32.8603111,28.7588211 C32.3761657,29.6110399 31.4813376,30.1364286 30.5128205,30.1364286 L30.4517949,30.1364286 Z" id="Shape" fill="#4CB944"></path>
                    <path d="M17,1.53225981 C17.7351568,1.52856006 18.4154235,1.92699502 18.780641,2.57521429 L25.5370513,14.4570714 L32.2934615,26.3367143 C32.6608845,26.9832701 32.6609942,27.7798337 32.2937494,28.426494 C31.9265046,29.0731542 31.247666,29.4717254 30.5128205,29.4721429 L18.8089744,27.5523571 C17.617929,27.3574905 16.4038659,27.3574905 15.2128205,27.5523571 L3.49807692,29.4721429 C2.76323144,29.4717254 2.08439284,29.0731542 1.71714805,28.426494 C1.34990327,27.7798337 1.35001298,26.9832701 1.7174359,26.3367143 L8.47384615,14.4570714 L15.2302564,2.57521429 C15.5938767,1.930776 16.2688576,1.53300261 17,1.53225981 L17,1.53225981 Z M17,0.203609819 C15.796379,0.195968265 14.68231,0.848669462 14.0860256,1.91092857 L7.32961538,13.7927857 L0.573205128,25.6724286 C-0.0288712179,26.7318916 -0.0278652632,28.0374491 0.575843013,29.0959531 C1.17955129,30.1544571 2.29394214,30.804566 3.49807692,30.8007313 L3.60269231,30.8007313 L3.70512821,30.7785714 L15.4089744,28.8587857 C16.4622323,28.6875598 17.5355882,28.6875598 18.5888462,28.8587857 L30.2948718,30.7785714 L30.3994872,30.7962857 L30.5128205,30.7962857 C31.7150093,30.7961724 32.8258268,30.1444972 33.4268729,29.0867198 C34.027919,28.0289425 34.0278893,26.725749 33.4267949,25.668 L26.6703846,13.7883571 L19.9139744,1.9065 C19.3172447,0.845261661 18.2029563,0.194125365 17,0.203609819 Z" id="Shape" fill="#FFFFFF"></path>
                </g>
            </g>
        </g>
    </g>
</svg>