<?xml version="1.0" encoding="UTF-8" standalone="no"?>
<svg width="94px" height="94px" viewBox="0 0 94 94" version="1.1" xmlns="http://www.w3.org/2000/svg" xmlns:xlink="http://www.w3.org/1999/xlink">
    <!-- Generator: Sketch 40.3 (33839) - http://www.bohemiancoding.com/sketch -->
    <title>Application</title>
    <desc>Created with Sketch.</desc>
    <defs/>
    <g id="TAG-IP-ACCUEIL" stroke="none" stroke-width="1" fill="none" fill-rule="evenodd">
        <g id="02-Track" transform="translate(-691.000000, -820.000000)">
            <g id="Application" transform="translate(692.000000, 821.000000)">
                <circle id="Oval-4-Copy-3" stroke="#FFFFFF" cx="46" cy="46" r="46"/>
                <g transform="translate(36.000000, 36.500000)" id="show-apps-button" fill="#FFFFFF">
                    <path d="M0,5.597 L4.92153846,5.597 L4.92153846,0.7985 L0,0.7985 L0,5.597 Z M7.38615385,20 L12.3076923,20 L12.3076923,15.2015 L7.38615385,15.2015 L7.38615385,20 Z M0,20 L4.92153846,20 L4.92153846,15.2015 L0,15.2015 L0,20 Z M0,12.7985 L4.92153846,12.7985 L4.92153846,8 L0,8 L0,12.7985 Z M7.38615385,12.7985 L12.3076923,12.7985 L12.3076923,8 L7.38615385,8 L7.38615385,12.7985 Z M14.7723077,5.597 L19.6938462,5.597 L19.6938462,0.7985 L14.7723077,0.7985 L14.7723077,5.597 Z M7.38615385,5.597 L12.3076923,5.597 L12.3076923,0.7985 L7.38615385,0.7985 L7.38615385,5.597 Z M14.7723077,12.7985 L19.6938462,12.7985 L19.6938462,8 L14.7723077,8 L14.7723077,12.7985 Z M14.7723077,20 L19.6938462,20 L19.6938462,15.2015 L14.7723077,15.2015 L14.7723077,20 Z"/>
                </g>
            </g>
        </g>
    </g>
</svg>