<?xml version="1.0" encoding="UTF-8"?>
<svg width="241px" height="214px" viewBox="0 0 241 214" version="1.1" xmlns="http://www.w3.org/2000/svg" xmlns:xlink="http://www.w3.org/1999/xlink">
    <!-- Generator: Sketch 60.1 (88133) - https://sketch.com -->
    <title>Group 8</title>
    <desc>Created with Sketch.</desc>
    <defs>
        <filter x="-30.9%" y="-33.9%" width="161.8%" height="167.7%" filterUnits="objectBoundingBox" id="filter-1">
            <feOffset dx="0" dy="2" in="SourceAlpha" result="shadowOffsetOuter1"></feOffset>
            <feGaussianBlur stdDeviation="1.5" in="shadowOffsetOuter1" result="shadowBlurOuter1"></feGaussianBlur>
            <feColorMatrix values="0 0 0 0 0   0 0 0 0 0   0 0 0 0 0  0 0 0 0.5 0" type="matrix" in="shadowBlurOuter1" result="shadowMatrixOuter1"></feColorMatrix>
            <feMerge>
                <feMergeNode in="shadowMatrixOuter1"></feMergeNode>
                <feMergeNode in="SourceGraphic"></feMergeNode>
            </feMerge>
        </filter>
    </defs>
    <g id="TAG-IP-ACCUEIL" stroke="none" stroke-width="1" fill="none" fill-rule="evenodd">
        <g id="03-st-les_avantages" transform="translate(-370.000000, -552.000000)">
            <g id="Group-8" transform="translate(370.000000, 552.000000)">
                <g id="Group-3" transform="translate(0.000000, 33.000000)">
                    <g id="Screen_04-pin-Copy-4" transform="translate(0.000000, 126.279070)">
                        <ellipse id="Oval" fill="#FFFFFF" fill-rule="nonzero" cx="18.9156977" cy="18.0026882" rx="13.8715116" ry="12.9786822"></ellipse>
                        <path d="M18.9156977,0 C8.46884632,0 0,8.51118069 0,19.0102541 C0,30.2346207 18.9156977,51.9147287 18.9156977,51.9147287 C18.9156977,51.9147287 37.8313953,31.060181 37.8313953,19.0102541 C37.8313953,8.51118069 29.362549,0 18.9156977,0 Z M18.9156977,29.9296107 C12.4871239,29.9296107 7.27573525,24.6921712 7.27573525,18.231462 C7.27573525,11.7707529 12.4871239,6.53331335 18.9156977,6.53331335 C25.3442714,6.53331335 30.5556601,11.7707529 30.5556601,18.231462 C30.5556601,24.6921712 25.3442714,29.9296107 18.9156977,29.9296107 L18.9156977,29.9296107 Z" id="Shape" fill="#650CB4" fill-rule="nonzero"></path>
                        <g id="degroupe" transform="translate(11.769767, 15.072018)" fill="#F5A623">
                            <path d="M11.5128876,5.1285053 C11.7437407,5.12844054 11.9597249,5.24382136 12.0899701,5.43678824 C12.2202152,5.62975512 12.2479078,5.87539787 12.1639612,6.09311448 C11.4562886,8.18186319 9.57674956,9.63437423 7.40000775,9.77470608 C5.23387854,9.71253416 3.3143425,8.3452288 2.52489535,6.30211313 C2.42859176,6.09077052 2.44379829,5.84455267 2.5653554,5.64700112 C2.6869125,5.44944956 2.89850115,5.32708557 3.12832946,5.32142716 L11.5128876,5.1285053 Z" id="_Tracé_"></path>
                            <ellipse id="Oval" cx="1.68326357" cy="1.99352558" rx="1.50858527" ry="1.52729782"></ellipse>
                            <ellipse id="Oval" cx="12.291" cy="1.99352558" rx="1.65150388" ry="1.6719892"></ellipse>
                        </g>
                    </g>
                    <g id="Screen_04-pin-Copy-2" transform="translate(163.936047, 75.767442)">
                        <ellipse id="Oval" fill="#FFFFFF" fill-rule="nonzero" cx="39.2325581" cy="36.4806202" rx="28.0232558" ry="26.6589147"></ellipse>
                        <path d="M38.5319767,0 C17.2513536,0 0,17.2523933 0,38.5342989 C0,61.2863933 38.5319767,105.232558 38.5319767,105.232558 C38.5319767,105.232558 77.0639535,62.9598263 77.0639535,38.5342989 C77.0639535,17.2523933 59.8125999,0 38.5319767,0 Z M38.5319767,60.6681299 C25.4367339,60.6681299 14.8209422,50.0516983 14.8209422,36.9556663 C14.8209422,23.8596343 25.4367339,13.2432027 38.5319767,13.2432027 C51.6272195,13.2432027 62.2430113,23.8596343 62.2430113,36.9556663 C62.2430113,50.0516983 51.6272195,60.6681299 38.5319767,60.6681299 L38.5319767,60.6681299 Z" id="Shape" fill="#780FD4" fill-rule="nonzero"></path>
                        <g id="degroupe" transform="translate(23.819767, 29.465116)" fill="#F5A623">
                            <path d="M23.7030039,10.7421395 C24.1782897,10.7420038 24.6229631,10.9836799 24.8911149,11.3878673 C25.1592666,11.7920546 25.2162808,12.3065766 25.0434496,12.7626047 C23.5864765,17.1376864 19.7168373,20.1801082 15.2353101,20.4740465 C10.7756323,20.3438216 6.82364633,17.4798711 5.19831395,13.2003721 C5.00004185,12.757695 5.03134943,12.2419684 5.28161405,11.828178 C5.53187868,11.4143876 5.96750236,11.1580846 6.44067829,11.1462326 L23.7030039,10.7421395 Z" id="_Tracé_"></path>
                            <ellipse id="Oval" cx="3.46554264" cy="4.17562791" rx="3.10591085" ry="3.19906977"></ellipse>
                            <ellipse id="Oval" cx="25.305" cy="4.17562791" rx="3.40015504" ry="3.50213953"></ellipse>
                        </g>
                    </g>
                    <g id="Screen_04-pin-Copy-3" transform="translate(23.819767, 94.007752)">
                        <ellipse id="Oval" fill="#FFFFFF" fill-rule="nonzero" cx="31.5261628" cy="30.1666667" rx="23.119186" ry="21.748062"></ellipse>
                        <path d="M31.5261628,0 C14.1147439,0 0,14.2619785 0,31.8550205 C0,50.6634184 31.5261628,86.9922481 31.5261628,86.9922481 C31.5261628,86.9922481 63.0523256,52.0467898 63.0523256,31.8550205 C63.0523256,14.2619785 48.9375817,0 31.5261628,0 Z M31.5261628,50.1523207 C20.8118732,50.1523207 12.1262254,41.3760706 12.1262254,30.5500175 C12.1262254,19.7239644 20.8118732,10.9477143 31.5261628,10.9477143 C42.2404524,10.9477143 50.9261002,19.7239644 50.9261002,30.5500175 C50.9261002,41.3760706 42.2404524,50.1523207 31.5261628,50.1523207 L31.5261628,50.1523207 Z" id="Shape" fill="#780FD4" fill-rule="nonzero"></path>
                        <g id="degroupe" transform="translate(19.616279, 25.255814)" fill="#F5A623">
                            <path d="M19.188146,8.59371158 C19.5729012,8.59360306 19.9328749,8.7869439 20.1499501,9.11029381 C20.3670254,9.43364371 20.4131797,9.84526129 20.2732687,10.2100837 C19.0938143,13.7101491 15.9612493,16.1440865 12.3333463,16.3792372 C8.7231309,16.2750572 5.52390417,13.9838969 4.20815891,10.5602977 C4.04765293,10.206156 4.07299716,9.79357474 4.27559233,9.46254241 C4.4781875,9.13151008 4.83083524,8.92646771 5.21388243,8.91698605 L19.188146,8.59371158 Z" id="_Tracé_"></path>
                            <ellipse id="Oval" cx="2.80543928" cy="3.34050233" rx="2.51430879" ry="2.55925581"></ellipse>
                            <ellipse id="Oval" cx="20.485" cy="3.34050233" rx="2.75250646" ry="2.80171163"></ellipse>
                        </g>
                    </g>
                    <g id="Screen_04-pin-Copy" transform="translate(61.651163, 0.000000)">
                        <ellipse id="Oval" fill="#FFFFFF" fill-rule="nonzero" cx="67.9563953" cy="63.8410853" rx="48.3401163" ry="45.6007752"></ellipse>
                        <path d="M66.5552326,0 C29.7977926,0 0,29.6741165 0,66.2789942 C0,105.412596 66.5552326,181 66.5552326,181 C66.5552326,181 133.110465,108.290901 133.110465,66.2789942 C133.110465,29.6741165 103.312673,0 66.5552326,0 Z M66.5552326,104.349183 C43.9361768,104.349183 25.5998092,86.0889211 25.5998092,63.563746 C25.5998092,41.038571 43.9361768,22.7783087 66.5552326,22.7783087 C89.1742883,22.7783087 107.510656,41.038571 107.510656,63.563746 C107.510656,86.0889211 89.1742883,104.349183 66.5552326,104.349183 L66.5552326,104.349183 Z" id="Shape" fill="#8724DF" fill-rule="nonzero"></path>
                        <g id="degroupe" transform="translate(42.034884, 50.511628)" fill="#F5A623">
                            <path d="M40.6337209,17.9035658 C41.4484966,17.9033397 42.2107939,18.3061331 42.6704827,18.9797788 C43.1301714,19.6534244 43.22791,20.510961 42.9316279,21.2710078 C40.4339597,28.5628107 33.8002926,33.6335136 26.1176744,34.1234109 C18.4725125,33.9063693 11.6976794,29.1331186 8.91139535,22.0006202 C8.57150031,21.262825 8.62517045,20.4032807 9.05419552,19.71363 C9.48322059,19.0239793 10.230004,18.5968077 11.0411628,18.5770543 L40.6337209,17.9035658 Z" id="_Tracé_"></path>
                            <ellipse id="Oval" cx="5.94093023" cy="6.95937984" rx="5.3244186" ry="5.33178295"></ellipse>
                            <ellipse id="Oval" cx="43.38" cy="6.95937984" rx="5.82883721" ry="5.83689922"></ellipse>
                        </g>
                    </g>
                </g>
                <g id="Plan-de-travail-28-Copy-2" filter="url(#filter-1)" transform="translate(51.000000, 22.500000) scale(-1, 1) rotate(214.000000) translate(-51.000000, -22.500000) translate(34.000000, 7.000000)" fill-rule="nonzero">
                    <path d="M30.4517949,30.1364286 L18.695641,28.2077857 C17.5738543,28.0247463 16.4305047,28.0247463 15.3087179,28.2077857 L3.55038462,30.1364286 L3.49807692,30.1364286 C2.5295598,30.1364286 1.63473175,29.6110399 1.15058632,28.7588211 C0.666440896,27.9066023 0.666510619,26.8567238 1.15076923,26.0045714 L14.6635897,2.24307143 C15.1481045,1.39152902 16.042772,0.867072034 17.0108974,0.867072034 C17.9790228,0.867072034 18.8736903,1.39152902 19.3582051,2.24307143 L32.8601282,26.0045714 C33.3443868,26.8567238 33.3444565,27.9066023 32.8603111,28.7588211 C32.3761657,29.6110399 31.4813376,30.1364286 30.5128205,30.1364286 L30.4517949,30.1364286 Z" id="Shape" fill="#4CB944"></path>
                    <path d="M17,1.53225981 C17.7351568,1.52856006 18.4154235,1.92699502 18.780641,2.57521429 L25.5370513,14.4570714 L32.2934615,26.3367143 C32.6608845,26.9832701 32.6609942,27.7798337 32.2937494,28.426494 C31.9265046,29.0731542 31.247666,29.4717254 30.5128205,29.4721429 L18.8089744,27.5523571 C17.617929,27.3574905 16.4038659,27.3574905 15.2128205,27.5523571 L3.49807692,29.4721429 C2.76323144,29.4717254 2.08439284,29.0731542 1.71714805,28.426494 C1.34990327,27.7798337 1.35001298,26.9832701 1.7174359,26.3367143 L8.47384615,14.4570714 L15.2302564,2.57521429 C15.5938767,1.930776 16.2688576,1.53300261 17,1.53225981 L17,1.53225981 Z M17,0.203609819 C15.796379,0.195968265 14.68231,0.848669462 14.0860256,1.91092857 L7.32961538,13.7927857 L0.573205128,25.6724286 C-0.0288712179,26.7318916 -0.0278652632,28.0374491 0.575843013,29.0959531 C1.17955129,30.1544571 2.29394214,30.804566 3.49807692,30.8007313 L3.60269231,30.8007313 L3.70512821,30.7785714 L15.4089744,28.8587857 C16.4622323,28.6875598 17.5355882,28.6875598 18.5888462,28.8587857 L30.2948718,30.7785714 L30.3994872,30.7962857 L30.5128205,30.7962857 C31.7150093,30.7961724 32.8258268,30.1444972 33.4268729,29.0867198 C34.027919,28.0289425 34.0278893,26.725749 33.4267949,25.668 L26.6703846,13.7883571 L19.9139744,1.9065 C19.3172447,0.845261661 18.2029563,0.194125365 17,0.203609819 Z" id="Shape" fill="#FFFFFF"></path>
                </g>
            </g>
        </g>
    </g>
</svg>