<?xml version="1.0" encoding="UTF-8" standalone="no"?>
<svg width="60px" height="63px" viewBox="0 0 60 63" version="1.1" xmlns="http://www.w3.org/2000/svg" xmlns:xlink="http://www.w3.org/1999/xlink">
    <!-- Generator: Sketch 40.3 (33839) - http://www.bohemiancoding.com/sketch -->
    <title>database</title>
    <desc>Created with Sketch.</desc>
    <defs>
        <polygon id="path-1" points="9.50121258e-18 0 9.50121258e-18 63 60 63 60 0 0 0"/>
    </defs>
    <g id="TAG-IP-ACCUEIL" stroke="none" stroke-width="1" fill="none" fill-rule="evenodd">
        <g id="03-Forms" transform="translate(-360.000000, -3198.000000)">
            <g id="database" transform="translate(360.000000, 3198.000000)">
                <mask id="mask-2" fill="white">
                    <use xlink:href="#path-1"/>
                </mask>
                <g id="Clip-2"/>
                <path d="M55.6377273,49.1041242 C55.1686364,44.5665329 51.435,41 46.9595455,41 C44.1640909,41 41.5213636,42.4241268 39.8918182,44.7599158 C39.5713636,44.7060449 39.2522727,44.6798 38.9277273,44.6798 C36.3968182,44.6798 34.1495455,46.4216273 33.4036364,48.8886404 C31.3213636,50.1401039 30,52.4703677 30,54.9691508 C30,58.8437151 33.0409091,62 36.7759091,62 L48.5263636,62 C48.5959091,62 48.6586364,61.9944748 48.7131818,61.9889495 C48.7813636,61.9944748 48.8509091,62 48.9204545,62 L53.6236364,62 C57.1390909,62 60,59.0260475 60,55.3793988 C60,52.5090443 58.2095455,49.9936855 55.6377273,49.1041242 L55.6377273,49.1041242 Z M53.6236364,59.7871473 L48.8727273,59.781622 L48.6913636,59.7760968 L36.7759091,59.7871473 C34.245,59.7871473 32.1831818,57.6240216 32.1831818,54.9691508 C32.1831818,53.1292508 33.2168182,51.4247188 34.8204545,50.6207985 L35.295,50.3887391 L35.4068182,49.8596987 C35.7681818,48.1385911 37.2490909,46.8857462 38.9277273,46.8857462 C39.3054545,46.8857462 39.6790909,46.9506676 40.0404545,47.0749852 L40.8872727,47.3609156 L41.3345455,46.573571 C42.5277273,44.4684602 44.6318182,43.2114714 46.9595455,43.2114714 C50.5240909,43.2114714 53.4586364,46.248964 53.5009091,49.9784911 L53.5172727,50.8735776 L54.3859091,51.0462409 C56.3781818,51.4399132 57.8209091,53.2590936 57.8209091,55.3793988 C57.8209091,57.8077353 55.935,59.7871473 53.6236364,59.7871473 L53.6236364,59.7871473 Z" id="Fill-1" fill="#FF7D10" mask="url(#mask-2)"/>
                <path d="M31.018625,45.9285301 C32.5215,43.157085 35.374625,41.3372487 38.581125,41.166515 C40.852625,38.9125651 43.962875,37.6300769 47.1845,37.6300769 C49.9675,37.6300769 52.59375,38.6028621 54.68375,40.2307883 C54.791,40.1381421 54.90925,40.0441724 55,39.9568202 L55,30 C53.549375,30.9608735 51.66975,31.7986599 49.4725,32.5067417 C44.842875,34.068492 38.418875,35.1590702 30.36825,35.370833 C29.412625,35.3973033 28.455625,35.411862 27.5,35.411862 C26.544375,35.411862 25.581875,35.3973033 24.62625,35.370833 C16.548125,35.1537762 10.113125,34.0579039 5.4835,32.4908595 C3.30275,31.7827777 1.439625,30.9555795 0,30 L0,39.9568202 C3.130875,43.1001737 13.63175,46 27.5,46 C28.703125,46 29.869125,45.9695591 31.018625,45.9285301 L31.018625,45.9285301 Z" id="Fill-3" fill="#FF7D10" mask="url(#mask-2)"/>
                <path d="M24.899875,31.964268 C25.260125,31.9748553 25.614875,31.9841191 25.980625,31.9894127 C26.47975,31.9947064 26.989875,32 27.5,32 C28.015625,32 28.52025,31.9947064 29.019375,31.9894127 C29.385125,31.9841191 29.745375,31.9748553 30.105625,31.964268 C30.228,31.9589744 30.35725,31.9589744 30.4865,31.9536807 C42.867,31.5765095 52.100125,28.8674938 55,25.9573201 L55,16 C49.644375,19.5414392 38.328125,21.4127378 27.5,21.4127378 C16.671875,21.4127378 5.355625,19.5414392 0,16 L0,25.9520265 C2.899875,28.8674938 12.1385,31.5765095 24.5135,31.9536807 C24.64275,31.9589744 24.772,31.9589744 24.899875,31.964268 L24.899875,31.964268 Z" id="Fill-4" fill="#FF7D10" mask="url(#mask-2)"/>
                <path d="M55,11.9669166 L55,9.52668725 C55,9.35200706 54.940875,9.19188355 54.855625,9.04102338 C53.6195,4.49272166 44.12925,0 27.5,0 C10.91475,0 1.434125,4.46625496 0.160875,9.01058668 C0.070125,9.16541685 0,9.33612704 0,9.52668725 L0,11.9669166 C3.12125,15.1045434 13.550625,18 27.5,18 C41.4535,18 51.87875,15.1045434 55,11.9669166 L55,11.9669166 Z" id="Fill-5" fill="#FF7D10" mask="url(#mask-2)"/>
                <path d="M26.2746156,54.8723296 C26.2746156,53.0499201 26.7601834,51.2854963 27.6234152,49.7378288 C27.4076072,49.7378288 27.1971945,49.7433513 26.9759914,49.7433513 C13.6565956,49.7433513 4.46317777,47.2140677 0,44 L0,53.0554425 C0,53.2376835 0.0472079849,53.4047377 0.126787159,53.5566051 C1.40140275,58.9603255 12.8028055,63 26.9759914,63 C28.0037766,63 29.0045859,62.9723877 30,62.9295887 C27.7340167,61.0312455 26.2746156,58.1291963 26.2746156,54.8723296 L26.2746156,54.8723296 Z" id="Fill-6" fill="#FF7D10" mask="url(#mask-2)"/>
            </g>
        </g>
    </g>
</svg>