<?xml version="1.0" encoding="UTF-8" standalone="no"?>
<svg width="94px" height="94px" viewBox="0 0 94 94" version="1.1" xmlns="http://www.w3.org/2000/svg" xmlns:xlink="http://www.w3.org/1999/xlink">
    <!-- Generator: Sketch 40.3 (33839) - http://www.bohemiancoding.com/sketch -->
    <title>flotte</title>
    <desc>Created with Sketch.</desc>
    <defs>
        <polygon id="path-1" points="0.06 0.846415758 0.06 21.455 50.0986037 21.455 50.0986037 0.846415758 0.06 0.846415758"/>
    </defs>
    <g id="TAG-IP-ACCUEIL" stroke="none" stroke-width="1" fill="none" fill-rule="evenodd">
        <g id="02-Track" transform="translate(-543.000000, -820.000000)">
            <g id="flotte" transform="translate(544.000000, 821.000000)">
                <circle id="Oval-4-Copy-2" stroke="#FFFFFF" cx="46" cy="46" r="46"/>
                <g id="car" transform="translate(46.000000, 46.000000) scale(-1, 1) translate(-46.000000, -46.000000) translate(20.500000, 34.000000)">
                    <g id="Group-3">
                        <mask id="mask-2" fill="white">
                            <use xlink:href="#path-1"/>
                        </mask>
                        <g id="Clip-2"/>
                        <path d="M49.344,11.416 C49.273,10.569 49.195,9.608 49.043,8.78 C48.934,8.202 48.699,7.432 47.906,7.432 C47.824,7.432 47.746,7.44 47.668,7.448 C47.617,7.452 47.566,7.459 47.488,7.459 C47.488,7.459 47.461,7.436 47.426,7.338 C47.195,6.67 46.215,5.838 44.957,4.823 C44.648,4.573 44.277,4.272 44.121,4.116 C44.18,3.713 44.168,3.225 43.891,2.885 C43.762,2.725 43.516,2.537 43.098,2.537 C43.035,2.537 42.969,2.541 42.824,2.553 C42.52,2.553 41.91,2.428 41.07,2.256 C38.902,1.811 34.863,0.979 28.809,0.85 C19.992,0.674 13.062,7.037 12.777,7.307 L12.574,7.495 C12.211,7.67 11.066,8.088 7.57,8.776 C2.613,9.752 1.668,11.33 1.492,11.944 C1.094,12.237 0.453,12.944 0.352,13.772 C0.27,14.432 0.086,14.702 0.086,14.702 L0,14.811 L0,19.479 L0.008,19.561 C0.277,20.803 1.562,21.455 3.723,21.455 C4.41,21.455 4.93,21.385 4.91,21.385 C4.938,21.385 5.207,21.381 5.668,21.37 C5.621,21.241 5.578,21.108 5.539,20.975 C5.504,20.842 5.473,20.713 5.445,20.577 C5.387,20.26 5.352,19.936 5.352,19.6 C5.352,16.733 7.684,14.401 10.551,14.401 C13.418,14.401 15.75,16.733 15.75,19.6 C15.75,19.862 15.727,20.112 15.688,20.362 C15.668,20.495 15.645,20.631 15.613,20.76 C15.586,20.897 15.551,21.034 15.508,21.162 C22.004,21.026 30.266,20.842 36.664,20.678 C36.637,20.549 36.617,20.416 36.602,20.28 C36.582,20.151 36.574,20.018 36.566,19.881 C36.562,19.787 36.551,19.698 36.551,19.6 C36.551,16.733 38.883,14.401 41.75,14.401 C44.578,14.401 46.879,16.67 46.945,19.483 C46.945,19.522 46.953,19.561 46.953,19.6 C46.953,19.702 46.941,19.799 46.938,19.901 C46.93,20.041 46.914,20.182 46.895,20.323 C48.117,20.123 49.035,19.479 49.566,18.436 C50.477,16.655 50.012,14.245 49.688,13.733 C49.512,13.455 49.422,12.373 49.344,11.416 L49.344,11.416 Z" id="Fill-1" stroke="#FFFFFF" mask="url(#mask-2)"/>
                    </g>
                    <path d="M6.37239968,21.2946794 C7.06297601,22.8857435 8.64976697,24 10.5005115,24 C12.4146868,24 14.04547,22.8049113 14.6961464,21.1186903 C14.7483233,20.9826057 14.7923156,20.8465211 14.8322155,20.707367 C14.8721155,20.5712824 14.9007616,20.4351978 14.9283847,20.2950205 C14.9723769,20.0351296 15,19.7721692 15,19.5 C15,17.0136426 12.9855633,15 10.5005115,15 C8.01443674,15 6,17.0136426 6,19.5 C6,19.8356071 6.03989997,20.1671214 6.10844606,20.4832879 C6.14016142,20.6193724 6.17596908,20.755457 6.21996135,20.8864256 C6.26395362,21.026603 6.31203819,21.1626876 6.37239968,21.2946794 L6.37239968,21.2946794 Z" id="Fill-4" fill="#FFFFFF"/>
                    <path d="M37.135,20.5835607 C37.61875,22.5460437 39.3890909,24 41.4979545,24 C43.7029545,24 45.5367045,22.4099591 45.9202273,20.3154843 C45.9447727,20.1793997 45.9642045,20.0392224 45.9764773,19.9000682 C45.98875,19.7680764 46,19.6360846 46,19.5 C46,19.4959072 45.9959091,19.4918145 45.9959091,19.4918145 C45.9928409,17.0095498 43.9790909,15 41.4979545,15 C39.0127273,15 37,17.0136426 37,19.5 C37,19.5920873 37.0071591,19.6800819 37.01125,19.7680764 C37.0194318,19.9072306 37.0357955,20.0433151 37.0552273,20.175307 C37.0756818,20.3154843 37.1032955,20.4515689 37.135,20.5835607 L37.135,20.5835607 Z" id="Fill-5" fill="#FFFFFF"/>
                </g>
            </g>
        </g>
    </g>
</svg>