<?xml version="1.0" encoding="UTF-8" standalone="no"?>
<svg width="26px" height="20px" viewBox="0 0 26 20" version="1.1" xmlns="http://www.w3.org/2000/svg" xmlns:xlink="http://www.w3.org/1999/xlink">
    <!-- Generator: Sketch 40.3 (33839) - http://www.bohemiancoding.com/sketch -->
    <title>Fill-1</title>
    <desc>Created with Sketch.</desc>
    <defs/>
    <g id="TAG-IP-ACCUEIL" stroke="none" stroke-width="1" fill="none" fill-rule="evenodd">
        <g id="Contact" transform="translate(-290.000000, -219.000000)" fill="#FFFFFF">
            <path d="M315.708061,235.538749 C315.708061,236.106066 315.5503,236.632115 315.297495,237.094967 L307.22696,227.950473 L315.210252,220.877124 C315.520845,221.376251 315.708061,221.96259 315.708061,222.59601 L315.708061,235.538749 L315.708061,235.538749 Z M302.927342,229.610839 L314.03553,219.767959 C313.579907,219.515173 313.066497,219.360404 312.512648,219.360404 L293.341724,219.360404 C292.787126,219.360404 292.273778,219.515173 291.81984,219.767959 L302.927342,229.610839 L302.927342,229.610839 Z M306.024217,229.015147 L303.453171,231.29522 C303.302462,231.427743 303.115245,231.494163 302.927342,231.494163 C302.739376,231.494163 302.55216,231.427743 302.401513,231.294967 L299.829718,229.015147 L291.656774,238.276681 C292.146783,238.587988 292.720851,238.774355 293.341724,238.774355 L312.512648,238.774355 C313.133832,238.774355 313.707901,238.587988 314.197597,238.276681 L306.024217,229.015147 L306.024217,229.015147 Z M290.644432,220.877124 C290.333839,221.376251 290.146622,221.96259 290.146622,222.59601 L290.146622,235.538749 C290.146622,236.106066 290.303385,236.632115 290.556877,237.094967 L298.626726,227.948704 L290.644432,220.877124 L290.644432,220.877124 Z" id="Fill-1"/>
        </g>
    </g>
</svg>