<?xml version="1.0" encoding="UTF-8" standalone="no"?>
<svg width="22px" height="31px" viewBox="0 0 22 31" version="1.1" xmlns="http://www.w3.org/2000/svg" xmlns:xlink="http://www.w3.org/1999/xlink">
    <!-- Generator: Sketch 40.3 (33839) - http://www.bohemiancoding.com/sketch -->
    <title>placeholder</title>
    <desc>Created with Sketch.</desc>
    <defs/>
    <g id="TAG-IP-ACCUEIL" stroke="none" stroke-width="1" fill="none" fill-rule="evenodd">
        <g id="Contact" transform="translate(-291.000000, -288.000000)" fill="#FFFFFF">
            <g id="placeholder" transform="translate(291.000000, 288.000000)">
                <g id="Capa_1">
                    <path d="M18.5815385,3.16594545 C16.538359,1.12445455 13.821641,0 10.9323077,0 C8.04241026,0 5.32625641,1.12445455 3.28307692,3.16594545 C-0.498102564,6.94343636 -0.968,14.0508909 2.2654359,18.3570727 L10.9323077,30.8630364 L19.5862051,18.3745455 C22.8326154,14.0508909 22.3627179,6.94343636 18.5815385,3.16594545 L18.5815385,3.16594545 Z M11.0321538,14.6545455 C8.85528205,14.6545455 7.0834359,12.8841636 7.0834359,10.7090909 C7.0834359,8.53401818 8.85528205,6.76363636 11.0321538,6.76363636 C13.2090256,6.76363636 14.9808718,8.53401818 14.9808718,10.7090909 C14.9808718,12.8841636 13.2090256,14.6545455 11.0321538,14.6545455 L11.0321538,14.6545455 Z" id="Shape"/>
                </g>
            </g>
        </g>
    </g>
</svg>