<?xml version="1.0" encoding="UTF-8" standalone="no"?>
<svg width="24px" height="40px" viewBox="0 0 24 40" version="1.1" xmlns="http://www.w3.org/2000/svg" xmlns:xlink="http://www.w3.org/1999/xlink">
    <!-- Generator: Sketch 40.3 (33839) - http://www.bohemiancoding.com/sketch -->
    <title>02-mail-envelope-symbol</title>
    <desc>Created with Sketch.</desc>
    <defs/>
    <g id="TAG-IP-ACCUEIL" stroke="none" stroke-width="1" fill="none" fill-rule="evenodd">
        <g id="Contact" transform="translate(-535.000000, -209.000000)" fill="#FFFFFF">
            <g id="02-mail-envelope-symbol" transform="translate(535.000000, 209.000000)">
                <g id="mail-black-envelope-symbol">
                    <g id="TAG-IP-ACCUEIL">
                        <g id="02-Track">
                            <g id="mail-black-envelope-symbol">
                                <g id="smartphone-call">
                                    <g id="Capa_1">
                                        <path d="M20.9165714,0 L3.08342857,0 C1.59771429,0 0.381714286,1.21485714 0.381714286,2.70171429 L0.381714286,37.2971429 C0.381714286,38.784 1.59771429,40 3.08342857,40 L20.9165714,40 C22.4022857,40 23.6182857,38.7862857 23.6182857,37.2982857 L23.6182857,2.70171429 C23.6182857,1.21485714 22.4022857,0 20.9165714,0 L20.9165714,0 Z M9.14742857,1.94742857 L14.8525714,1.94742857 C15.0331429,1.94742857 15.1794286,2.09371429 15.1794286,2.27542857 C15.1794286,2.456 15.0331429,2.60228571 14.8525714,2.60228571 L9.14742857,2.60228571 C8.96685714,2.60228571 8.82057143,2.456 8.82057143,2.27542857 C8.82057143,2.09371429 8.96685714,1.94742857 9.14742857,1.94742857 L9.14742857,1.94742857 Z M12,38.6491429 C11.2537143,38.6491429 10.6491429,38.0445714 10.6491429,37.2971429 C10.6491429,36.5497143 11.2537143,35.9462857 12,35.9462857 C12.7462857,35.9462857 13.3508571,36.5497143 13.3508571,37.2971429 C13.3508571,38.0445714 12.7462857,38.6491429 12,38.6491429 L12,38.6491429 Z M21.7382857,35 L2.26171429,35 L2.26171429,4.28457143 L21.7382857,4.28457143 L21.7382857,35 L21.7382857,35 Z" id="Shape"/>
                                    </g>
                                </g>
                            </g>
                        </g>
                    </g>
                </g>
            </g>
        </g>
    </g>
</svg>