<?xml version="1.0" encoding="UTF-8" standalone="no"?>
<svg width="34px" height="40px" viewBox="0 0 34 40" version="1.1" xmlns="http://www.w3.org/2000/svg" xmlns:xlink="http://www.w3.org/1999/xlink">
    <!-- Generator: Sketch 40.3 (33839) - http://www.bohemiancoding.com/sketch -->
    <title>sms</title>
    <desc>Created with Sketch.</desc>
    <defs/>
    <g id="TAG-IP-ACCUEIL" stroke="none" stroke-width="1" fill="none" fill-rule="evenodd">
        <g id="02-Track" transform="translate(-697.000000, -2942.000000)" fill="#FF7D10">
            <g id="sms" transform="translate(697.000000, 2942.000000)">
                <path d="M17.3383258,19.2289717 C17.2886948,19.1874175 17.2608089,19.1313092 17.2143994,19.0866434 L17.2143994,33.7618148 C17.2143994,34.0527948 16.977721,34.2887707 16.6854721,34.2887707 L3.36262467,34.2887707 C3.07087907,34.2887707 2.83369736,34.0527948 2.83369736,33.7618148 L2.83369736,10.7953678 C2.83369736,10.5047892 3.07087907,10.268713 3.36262467,10.268713 L11.9944888,10.268713 L11.9944888,7.58103683 L2.53369671,7.58103683 C1.13456619,7.58103683 0,8.71223562 0,10.1080165 L0,37.4732911 C0,38.8686704 1.13456619,39.9998692 2.53369671,39.9998692 L17.5148027,39.9998692 C18.9136312,39.9998692 20.0484994,38.8686704 20.0484994,37.4732911 L20.0484994,19.808824 C19.7878613,19.8825978 19.5192701,19.9256577 19.2474574,19.9256577 C18.5412478,19.9256577 17.8573873,19.6732207 17.3383258,19.2289717 L17.3383258,19.2289717 Z M10.0242497,38.5714673 C9.13985183,38.5714673 8.42377647,37.8567143 8.42377647,36.9757443 C8.42377647,36.0946739 9.13985183,35.3799209 10.0242497,35.3799209 C10.9075402,35.3799209 11.6248236,36.0946739 11.6248236,36.9757443 C11.6248236,37.8567143 10.9071375,38.5714673 10.0242497,38.5714673 L10.0242497,38.5714673 Z" id="Fill-1"/>
                <path d="M31.5761751,0.246010638 L17.0363117,0.246010638 C15.74047,0.246010638 14.6901658,1.29329797 14.6901658,2.58519323 L14.6901658,10.6506306 C14.6901658,11.9425258 15.74047,12.9898132 17.0363117,12.9898132 L20.4523929,12.9898132 L19.0005106,16.8850716 C18.9623561,16.9882546 18.9926582,17.1046868 19.0768195,17.1752487 C19.1255444,17.2164014 19.1861486,17.238383 19.2474574,17.238383 C19.2915515,17.238383 19.3363502,17.2270409 19.3765181,17.2042563 L26.8485476,12.9898132 L31.5761751,12.9898132 C32.8719162,12.9898132 33.9223211,11.9425258 33.9223211,10.6506306 L33.9223211,2.58519323 C33.9223211,1.29329797 32.8719162,0.246010638 31.5761751,0.246010638 L31.5761751,0.246010638 Z" id="Fill-3"/>
            </g>
        </g>
    </g>
</svg>