<?xml version="1.0" encoding="UTF-8" standalone="no"?>
<svg width="94px" height="94px" viewBox="0 0 94 94" version="1.1" xmlns="http://www.w3.org/2000/svg" xmlns:xlink="http://www.w3.org/1999/xlink">
    <!-- Generator: Sketch 40.3 (33839) - http://www.bohemiancoding.com/sketch -->
    <title>satellite</title>
    <desc>Created with Sketch.</desc>
    <defs>
        <polygon id="path-1" points="0.00711246201 0.0464680851 0.00711246201 38.9362249 38.8897568 38.9362249 38.8897568 0.0464680851 0.00711246201 0.0464680851"/>
    </defs>
    <g id="TAG-IP-ACCUEIL" stroke="none" stroke-width="1" fill="none" fill-rule="evenodd">
        <g id="02-Track" transform="translate(-199.000000, -820.000000)">
            <g id="satellite" transform="translate(200.000000, 821.000000)">
                <g transform="translate(26.500000, 26.500000)">
                    <path d="M38.296875,30 C37.9082813,30 37.59375,30.3148828 37.59375,30.703125 C37.59375,34.5024609 34.5024609,37.59375 30.703125,37.59375 C30.3148828,37.59375 30,37.9082813 30,38.296875 C30,38.6851172 30.3148828,39 30.703125,39 C35.2780078,39 39,35.2780078 39,30.703125 C39,30.3148828 38.6851172,30 38.296875,30 L38.296875,30 Z" id="Fill-1" fill="#000000"/>
                    <path d="M30.6521857,36 C33.6010435,36 36,33.6009348 36,30.6521857 C36,30.2920705 35.7078208,30 35.3478143,30 C34.9876991,30 34.6956285,30.2920705 34.6956285,30.6521857 C34.6956285,32.8816826 32.8816826,34.6956285 30.6521857,34.6956285 C30.2920705,34.6956285 30,34.9876991 30,35.3478143 C30,35.7078208 30.2920705,36 30.6521857,36 L30.6521857,36 Z" id="Fill-2" fill="#000000"/>
                    <g id="Group-6">
                        <mask id="mask-2" fill="white">
                            <use xlink:href="#path-1"/>
                        </mask>
                        <g id="Clip-4"/>
                        <path d="M31.0351094,34.3529544 C32.8390669,34.3529544 34.3064863,32.885535 34.3064863,31.0815775 C34.3064863,30.6888511 33.9884407,30.3703313 33.5952401,30.3703313 C33.2026322,30.3703313 32.8839939,30.6888511 32.8839939,31.0815775 C32.8839939,32.1011489 32.0546809,32.930462 31.0351094,32.930462 C30.642383,32.930462 30.3238632,33.2491003 30.3238632,33.6417082 C30.3238632,34.0349088 30.642383,34.3529544 31.0351094,34.3529544 L31.0351094,34.3529544 Z" id="Fill-3" fill="#FFFFFF" mask="url(#mask-2)"/>
                        <path d="M30.6253131,31.6774833 C30.763769,31.8164134 30.9462036,31.8858784 31.1281641,31.8858784 C31.3101246,31.8858784 31.4920851,31.8164134 31.6310152,31.6774833 C31.9088754,31.3996231 31.9088754,30.9490486 31.6310152,30.671307 L31.3810122,30.4216596 L35.1024894,26.7001824 C35.2363222,26.5668237 35.3108845,26.385693 35.3108845,26.1972128 C35.3108845,26.0083769 35.2363222,25.8277204 35.1024894,25.6943617 C33.2609544,23.8528267 30.6039757,23.3138207 28.2836535,24.0741429 L27.1546687,22.9452766 L28.9439271,21.1555441 C29.2217872,20.8781581 29.2217872,20.4277021 28.9439271,20.1498419 L24.3680061,15.573921 L26.1752827,13.7671185 L28.4216353,16.0133526 C28.5605653,16.1522827 28.7425258,16.2217477 28.9244863,16.2217477 C29.1064468,16.2217477 29.2884073,16.1522827 29.4273374,16.0133526 L38.6813617,6.75932827 C38.8148389,6.6259696 38.8897568,6.44495745 38.8897568,6.2564772 C38.8897568,6.06799696 38.8148389,5.8869848 38.6813617,5.75362614 L33.1831915,0.254863222 C33.0498328,0.121504559 32.8687021,0.0464680851 32.6798663,0.0464680851 C32.491386,0.0464680851 32.3102553,0.121504559 32.1768967,0.254863222 L22.9228723,9.50888754 C22.7895137,9.6422462 22.7144772,9.8233769 22.7144772,10.0117386 C22.7144772,10.2002188 22.7895137,10.3813495 22.9228723,10.5147082 L25.1695805,12.7609422 L23.362304,14.5682188 L19.9112188,11.1166596 C18.5414772,9.74691793 16.4086869,9.59554103 14.869076,10.6600395 L13.2576292,9.04859271 C12.979769,8.77085106 12.5296687,8.77085106 12.2518085,9.04859271 L9.00212462,12.2982766 C8.86876596,12.4316353 8.79384802,12.612766 8.79384802,12.8012462 C8.79384802,12.9896079 8.86876596,13.1707386 9.00212462,13.3040973 L10.6130973,14.9150699 C10.1583739,15.5707204 9.91251976,16.3472827 9.91251976,17.1617781 C9.91251976,18.2179787 10.3237386,19.2107599 11.0701915,19.9576869 L14.5217508,23.408772 L12.7149483,25.2160486 L10.4682401,22.9693404 C10.1903799,22.6914802 9.74027964,22.6914802 9.46241945,22.9693404 L0.208395137,32.2233647 C-0.0694650456,32.5012249 -0.0694650456,32.9517994 0.208395137,33.2296596 L5.70715805,38.7278298 C5.8459696,38.8667599 6.02804863,38.9362249 6.21000912,38.9362249 C6.3919696,38.9362249 6.57393009,38.867234 6.71286018,38.7278298 L15.9668845,29.4738055 C16.2447447,29.1964195 16.2447447,28.745845 15.9668845,28.4681033 L13.7206505,26.2217508 L15.5274529,24.4149483 L20.1033739,28.9908693 C20.2367325,29.124228 20.4177447,29.1992644 20.6062249,29.1992644 C20.7947052,29.1992644 20.9757173,29.124228 21.109076,28.9908693 L22.8992827,27.2006626 L24.0281489,28.3296474 C23.2673526,30.6504438 23.8058845,33.3078967 25.6478936,35.1494316 C25.7863495,35.2883617 25.9687842,35.3578267 26.1507447,35.3578267 C26.3328237,35.3578267 26.5147842,35.2883617 26.6537143,35.1494316 L30.3751915,31.4278359 L30.6253131,31.6774833 Z M32.0046565,11.4245106 L27.5117143,6.93204255 L29.6000517,4.84370517 L34.0929939,9.33617325 L32.0046565,11.4245106 Z M32.6798663,1.76341641 L37.1728085,6.2564772 L35.0988146,8.33047112 L30.6058723,3.8378845 L32.6798663,1.76341641 Z M26.5060122,7.93774468 L30.9989544,12.4303313 L28.9244863,14.5047994 L24.4318997,10.0117386 L26.5060122,7.93774468 Z M6.8851003,27.5581824 L11.3780426,32.0511246 L9.28970517,34.139462 L4.79723708,29.6465198 L6.8851003,27.5581824 Z M6.21000912,37.2192766 L1.71694833,32.72669 L3.79141641,30.6522219 L8.28400304,35.1452827 L6.21000912,37.2192766 Z M12.3838632,31.0454225 L7.8912766,26.5524802 L9.96527052,24.4783678 L14.4583313,28.9709544 L12.3838632,31.0454225 Z M19.5023708,12.71969 L25.5372948,18.754614 L18.7081459,25.5837629 L12.6732219,19.5488389 L19.5023708,12.71969 Z M17.1157842,11.3824286 C17.5788055,11.3824286 18.0423009,11.5092675 18.4488967,11.7616413 L11.7146991,18.4958389 C11.4678967,18.0994377 11.3350122,17.6410395 11.3350122,17.1622523 C11.3350122,16.4857386 11.5980547,15.8503587 12.0763678,15.3725198 L15.3260517,12.1228359 C15.8191824,11.629231 16.4674833,11.3824286 17.1157842,11.3824286 L17.1157842,11.3824286 Z M12.7547781,10.5572644 L13.8170243,11.6199848 L12.6950334,12.7415015 L11.5735167,13.8634924 L10.5107964,12.8012462 L12.7547781,10.5572644 Z M20.6062249,27.4817234 L19.7139666,26.589465 L26.542997,19.7604347 L27.4352553,20.652693 L20.6062249,27.4817234 Z M23.9049848,26.1949605 L26.1489666,23.9514529 L26.905614,24.7076261 C26.4572918,24.9799149 26.0341003,25.3077994 25.6474195,25.6943617 C25.2613313,26.0805684 24.9334468,26.5037599 24.6616322,26.9516079 L23.9049848,26.1949605 Z M26.1846474,33.6065015 C24.6152827,31.5455471 24.7718754,28.5820213 26.6537143,26.7001824 C27.6798055,25.6739726 29.0272614,25.1609271 30.3751915,25.1609271 C31.499079,25.1609271 32.622848,25.5174985 33.5600334,26.2311155 L26.1846474,33.6065015 Z" id="Fill-5" fill="#FFFFFF" mask="url(#mask-2)"/>
                    </g>
                </g>
                <circle id="Oval-4" stroke="#FFFFFF" cx="46" cy="46" r="46"/>
            </g>
        </g>
    </g>
</svg>