<?xml version="1.0" encoding="UTF-8"?>
<svg width="518px" height="778px" viewBox="0 0 518 778" version="1.1" xmlns="http://www.w3.org/2000/svg" xmlns:xlink="http://www.w3.org/1999/xlink">
    <!-- Generator: Sketch 60.1 (88133) - https://sketch.com -->
    <title>Group 3</title>
    <desc>Created with Sketch.</desc>
    <defs>
        <linearGradient x1="0%" y1="100%" x2="95.2556959%" y2="4.78157301%" id="linearGradient-1">
            <stop stop-color="#EC5151" offset="0%"/>
            <stop stop-color="#5FFF1F" offset="100%"/>
        </linearGradient>
        <circle id="path-2" cx="509.5" cy="499.5" r="149.5"/>
        <mask id="mask-3" maskContentUnits="userSpaceOnUse" maskUnits="objectBoundingBox" x="0" y="0" width="299" height="299" fill="white">
            <use xlink:href="#path-2"/>
        </mask>
        <filter x="-25.0%" y="-27.6%" width="150.0%" height="155.1%" filterUnits="objectBoundingBox" id="filter-4">
            <feOffset dx="0" dy="2" in="SourceAlpha" result="shadowOffsetOuter1"/>
            <feGaussianBlur stdDeviation="2.5" in="shadowOffsetOuter1" result="shadowBlurOuter1"/>
            <feColorMatrix values="0 0 0 0 0   0 0 0 0 0   0 0 0 0 0  0 0 0 0.5 0" type="matrix" in="shadowBlurOuter1" result="shadowMatrixOuter1"/>
            <feMerge>
                <feMergeNode in="shadowMatrixOuter1"/>
                <feMergeNode in="SourceGraphic"/>
            </feMerge>
        </filter>
        <linearGradient x1="49.9930372%" y1="-78.0010174%" x2="49.9930372%" y2="171.555328%" id="linearGradient-5">
            <stop stop-color="#00ABDB" offset="0%"/>
            <stop stop-color="#E2589B" offset="100%"/>
        </linearGradient>
        <path d="M35.9,-1.39477536e-06 C16.0729775,-1.39477536e-06 0,16.0729775 0,35.9 C0,57.1 35.9,98.05 35.9,98.05 C35.9,98.05 71.81,58.68 71.81,35.9 C71.81,26.3769952 68.0263171,17.2441739 61.2915982,10.5113304 C54.5568792,3.77848685 45.4230045,-0.00265264759 35.9,-1.39477536e-06 Z" id="path-6"/>
    </defs>
    <g id="TAG-IP-ACCUEIL" stroke="none" stroke-width="1" fill="none" fill-rule="evenodd">
        <g id="01-st_accueil" transform="translate(0.000000, -14.000000)">
            <g id="Group-3" transform="translate(-228.000000, 15.000000)">
                <rect id="Rectangle-Copy-3" stroke="#7ED321" stroke-width="0.799999952" transform="translate(339.500000, 92.500000) rotate(-315.000000) translate(-339.500000, -92.500000) " x="319.4" y="72.4" width="40.2" height="40.2" rx="7.19999957"/>
                <line x1="656" y1="23.5" x2="508.5" y2="171" id="line-blanche-2" stroke="#FFFFFF" stroke-width="2" stroke-linecap="round"/>
                <line x1="699" y1="0.5" x2="528.5" y2="171" id="Line-blanche-1" stroke="#FFFFFF" stroke-width="2" stroke-linecap="round"/>
                <use id="Oval" stroke="url(#linearGradient-1)" mask="url(#mask-3)" stroke-width="4" stroke-dasharray="10" xlink:href="#path-2"/>
                <g id="Pin_voiture" filter="url(#filter-4)" transform="translate(618.098274, 596.441305) rotate(406.000000) translate(-618.098274, -596.441305) translate(591.098274, 571.941305)" fill-rule="nonzero">
                    <path d="M47.9837916,47.2548044 L29.4592732,44.2306358 C27.6916407,43.9436247 25.890031,43.9436247 24.1223985,44.2306358 L5.59444579,47.2548044 L5.51202302,47.2548044 C3.98590202,47.2548044 2.57589504,46.4309796 1.81301281,45.0946755 C1.05013058,43.7583714 1.05024045,42.1121311 1.81330103,40.7759311 L23.105851,3.51720183 C23.8693153,2.18195834 25.2790692,1.35959439 26.804573,1.35959439 C28.3300768,1.35959439 29.7398307,2.18195834 30.503295,3.51720183 L51.7786735,40.7759311 C52.5417341,42.1121311 52.541844,43.7583714 51.7789617,45.0946755 C51.0160795,46.4309796 49.6060725,47.2548044 48.0799515,47.2548044 L47.9837916,47.2548044 Z" id="Shape" fill="#4CB944"/>
                    <path d="M26.7874016,2.40262835 C27.9458098,2.39682703 29.0177262,3.02158474 29.5932102,4.03801157 L40.2394852,22.6691123 L50.8857601,41.2967409 C51.4647193,42.3105594 51.4648922,43.5595945 50.8862137,44.5735768 C50.3075353,45.587559 49.2378692,46.2125303 48.0799515,46.2131849 L29.6378558,43.2029046 C27.7610905,42.8973479 25.8480555,42.8973479 23.9712901,43.2029046 L5.51202302,46.2131849 C4.35410531,46.2125303 3.28443929,45.587559 2.70576085,44.5735768 C2.12708241,43.5595945 2.12725529,42.3105594 2.70621442,41.2967409 L13.3524894,22.6691123 L23.9987644,4.03801157 C24.5717316,3.02751343 25.635319,2.40379308 26.7874016,2.40262835 L26.7874016,2.40262835 Z M26.7874016,0.319266171 C24.8908205,0.307283991 23.135349,1.33073862 22.1957662,2.99639208 L11.5494912,21.6274928 L0.903216233,40.2551214 C-0.0454932298,41.9163905 -0.0439081174,43.9635429 0.907372826,45.6233083 C1.85865377,47.2830736 3.6146323,48.3024635 5.51202302,48.2964506 L5.67686856,48.2964506 L5.83827983,48.2617032 L24.2803755,45.2514229 C25.9400251,44.9829357 27.6313437,44.9829357 29.2909933,45.2514229 L47.7365233,48.2617032 L47.9013689,48.2894798 L48.0799515,48.2894798 C49.9742758,48.2893021 51.7246238,47.2674562 52.6717099,45.6088303 C53.618796,43.9502044 53.6187491,41.9067588 52.6715869,40.2481773 L42.0253119,21.6205486 L31.3790369,2.98944795 C30.4387525,1.32539509 28.6829353,0.304394269 26.7874016,0.319266171 Z" id="Shape" fill="#FFFFFF"/>
                </g>
                <g id="Pin_homme" transform="translate(674.000000, 338.000000)">
                    <mask id="mask-7" fill="white">
                        <use xlink:href="#path-6"/>
                    </mask>
                    <use id="Shape" fill="url(#linearGradient-5)" fill-rule="nonzero" xlink:href="#path-6"/>
                    <g id="Group" mask="url(#mask-7)">
                        <g transform="translate(3.000000, 3.000000)">
                            <circle id="Oval" fill="#F7F6F6" cx="32.9" cy="31.43" r="30.65"/>
                            <g id="_Groupe_" stroke-width="1" fill="none" transform="translate(20.000000, 59.000000)">
                                <rect id="_Tracé_" fill="#58514F" x="0.61" y="0.41" width="2.31" height="7.38" rx="0.89"/>
                                <rect id="_Tracé_2" fill="#58514F" x="27.84" y="0.41" width="2.31" height="7.38" rx="0.89"/>
                            </g>
                            <path d="M12.16,127.1 C12.16,127.1 10.38,91.54 11.81,79.49 C12.57,73.13 15.01,66.1 20.43,62.23 C26.43,57.93 34.73,56.67 41.92,57.63 C46.3091766,58.1138764 50.4050462,60.0701653 53.54,63.18 C56.3292962,66.3207392 58.1340721,70.2119612 58.73,74.37 C59.95,81.37 59.62,109.16 59.73,116.97 C59.73,119.22 59.68,127.1 59.68,127.1 L12.16,127.1 Z" id="_Tracé_3" fill="#A64D68"/>
                            <path d="M59.71,117 C59.62,109.18 59.95,81.38 58.71,74.36 C58.71,74.06 58.6,73.75 58.53,73.44 C58.5549143,75.9156785 58.2180237,78.3817174 57.53,80.76 C53,95.8 27.35,105.1 11.52,83 C10.67,97.25 12.16,127.2 12.16,127.2 L59.66,127.2 C59.66,127.2 59.74,119.26 59.71,117 Z" id="_Tracé_4" fill="#1E0B08" opacity="0.08"/>
                            <path d="M30.42,58 C30.42,58 14,58 0.06,76.3 L12.4,86.43 L30.42,58 Z" id="_Tracé_5" fill="#A64D68"/>
                            <path d="M41.08,57.6 C41.08,57.6 57.14,58.21 69.81,74.36 L59.52,87.29 L41.08,57.6 Z" id="_Tracé_6" fill="#A64D68"/>
                            <path d="M12.06,80 C9.43,78 6.83,76 4.16,74.17 L2.65,73.17 C1.78,74.17 0.92,75.17 0.06,76.35 L12.4,86.43 L15.08,82.19 L12.06,80 Z" id="_Tracé_7" fill="#BC5579"/>
                            <path d="M63.31,75.15 C61.2938687,77.4579481 59.1434742,79.645073 56.87,81.7 L56.35,82.19 L59.52,87.29 L69.81,74.36 C68.88,73.17 67.92,72.06 66.95,71.03 C65.65,72.3 64.5,73.73 63.31,75.15 Z" id="_Tracé_8" fill="#BC5579"/>
                            <path d="M35.92,69.19 C41.3,69.19 45.66,65.4 45.66,60.71 C45.658729,59.8690053 45.5167696,59.0341488 45.24,58.24 C44.4,58.05 43.67,57.92 43.06,57.82 C42.68,57.7533333 42.3,57.6933333 41.92,57.64 C38.0742234,57.1285345 34.1698306,57.267132 30.37,58.05 L30.42,57.97 C29.1117543,58.0154647 27.8100565,58.1760855 26.53,58.45 C26.3020691,59.1818465 26.1841152,59.9434918 26.18,60.71 C26.18,65.4 30.54,69.19 35.92,69.19 Z" id="_Tracé_9" fill="#BC5579"/>
                            <path d="M35.77,47.08 L34.77,47.08 C32.66,47.08 30.48,49.08 30.53,51.16 C30.64,55.39 28.72,65.09 35.92,65.09 C43.12,65.09 40.46,53.88 40.35,49.69 C40.31,47.61 37.88,47 35.77,47.08 Z" id="_Tracé_10" fill="#F29079"/>
                            <path d="M16.92,33.33 C15.15,33.63 14.04,35.79 14.44,38.16 C14.84,40.53 16.59,42.22 18.36,41.92 C20.13,41.62 21.23,39.46 20.83,37.09 C20.43,34.72 18.68,33 16.92,33.33 Z" id="_Tracé_11" fill="#F29079"/>
                            <path d="M37.22,13.4196893 L31.22,13.4196893 C23.36,13.48 17.03,22.25 17.09,30.11 L17.18,40.88 C17.2350457,48.7903906 23.6895751,55.1598742 31.6,55.1102909 L37.6,55.1102909 C45.484563,55.0275918 51.8234223,48.5949228 51.7901316,40.71 L51.7,29.93 C51.62,22 45.08,13.36 37.22,13.4196893 Z" id="_Tracé_12" fill="#F4A084"/>
                            <path d="M53.77,32.38 C52.05,31.9 50.13,33.38 49.48,35.68 C48.83,37.98 49.69,40.25 51.4,40.68 C53.11,41.11 55.04,39.68 55.69,37.39 C56.34,35.1 55.48,32.87 53.77,32.38 Z" id="_Tracé_13" fill="#F4A084"/>
                            <path d="M51.8,37.86 C51.3243928,37.904944 50.8456072,37.904944 50.37,37.86 C49.16,46.73 43.65,53.06 34,53.39 C23.09,53.76 20.14,48.45 17.42,43.15 C18.5630839,50.086835 24.5696428,55.1699596 31.6,55.1500586 L37.6,55.1500586 C45.459464,55.0513014 51.7725599,48.6400513 51.75,40.78 C53.37,41 55.08,39.59 55.69,37.44 C55.9266509,36.6175477 55.9677444,35.7511588 55.81,34.91 C55.0320213,36.4864475 53.5365727,37.5865905 51.8,37.86 Z" id="_Tracé_14" fill="#F29079"/>
                            <path d="M39,42.83 L27.17,42.94 C26.8208458,42.9755987 26.5113475,43.1801606 26.3417519,43.487428 C26.1721563,43.7946953 26.1640281,44.165598 26.32,44.48 C27.69,47.83 30.32,50.12 33.32,50.09 C36.32,50.06 38.79,47.73 39.98,44.35 C40.1082604,44.0163844 40.069589,43.6415869 39.8759113,43.3411888 C39.6822335,43.0407907 39.3568115,42.8508718 39,42.83 L39,42.83 Z" id="_Tracé_15" fill="#FFFFFF"/>
                            <path d="M26,31.51 C24.95,31.08 23.62,32.15 23,33.91 C22.38,35.67 22.8,37.45 23.86,37.91 C24.92,38.37 26.24,37.27 26.86,35.51 C27.48,33.75 27.06,32 26,31.51 Z" id="_Tracé_16" fill="#36231A"/>
                            <path d="M23,33.91 C22.42,35.67 22.8,37.45 23.86,37.91 C24.92,38.37 25.92,37.51 26.58,36.12 C26.17,35.62 24.35,33.12 23.89,32.33 C23.499508,32.7980162 23.1978815,33.333488 23,33.91 L23,33.91 Z" id="_Tracé_17" fill="#FFFFFF" opacity="0.08"/>
                            <path d="M42.92,31.77 C41.87,31.34 40.54,32.41 39.92,34.17 C39.3,35.93 39.72,37.71 40.77,38.17 C41.82,38.63 43.16,37.53 43.77,35.77 C44.38,34.01 44,32.21 42.92,31.77 Z" id="_Tracé_18" fill="#36231A"/>
                            <path d="M40,34.17 C39.42,35.93 39.8,37.71 40.85,38.17 C41.9,38.63 42.92,37.77 43.58,36.38 C43.16,35.88 41.34,33.38 40.89,32.59 C40.4952333,33.0550521 40.1931311,33.5913683 40,34.17 Z" id="_Tracé_19" fill="#FFFFFF" opacity="0.08"/>
                            <path d="M34.67,9.64 C14,11.06 17.15,33.3 17.15,33.3 C18.34,26.68 22.55,18.45 25.8,18.3 C27.8741959,19.7553071 30.336563,20.5563601 32.87,20.6 C36.65,20.66 41.87,17.96 41.87,17.96 C45.64,17.85 48.8,26.58 50.07,31.21 C50.62,33.21 51.69,32.7 51.69,32.7 C51.69,32.7 54.9,8.25 34.67,9.64 Z" id="_Tracé_20" fill="#563429"/>
                            <path d="M45.47,11.33 C39.32,2.33 19.47,5.01 19.47,5.01 C17.56,15.3 25,17.58 25,17.58 C25,17.58 42.21,14.58 44.82,16.3 C47.43,18.02 51.7,30.69 51.7,30.69 C51.7,30.69 56.93,17.41 53.65,11.91 C51.22,7.87 45.47,11.33 45.47,11.33 Z" id="_Tracé_21" fill="#563429"/>
                            <path d="M21.3,12.69 C13.56,12.2 17.15,33.3 17.15,33.3 L19.15,21.3 C19.15,21.3 29.05,13.19 21.3,12.69 Z" id="_Tracé_22" fill="#563429"/>
                            <path d="M27.12,2.89 C27.2876764,3.90526072 27.7343059,4.85391549 28.41,5.63 C28.41,5.63 49.35,19.32 45.47,11.33 C41.59,3.34 27.12,2.89 27.12,2.89 Z" id="_Tracé_23" fill="#563429"/>
                            <path d="M48.84,8.56 C47.67,8.74 47.39,9.28 47.39,9.28 C47.8791957,8.16065088 47.9674907,6.90686225 47.64,5.73 C45.35,7.02 45.64,8.8 45.64,8.8 C44.5,6.52 41.04,5.8 41.04,5.8 C41.16,7.69 43.25,9.61 43.36,9.67 L45.17,12.32 L48.89,11.74 L48.51,10.12 C48.8384912,9.67132626 48.9586584,9.10326309 48.84,8.56 L48.84,8.56 Z" id="_Tracé_24" fill="#563429"/>
                            <path d="M20,12.83 C14,14.65 17.15,33.3 17.15,33.3 C18.34,26.68 22.55,18.45 25.8,18.3 C23.5409507,16.85626 21.5734487,15.0007022 20,12.83 L20,12.83 Z" id="_Tracé_25" fill="#472B21"/>
                            <path d="M51.25,10.22 L50.95,10.22 C50.0690932,10.2403755 49.1961535,10.3920445 48.36,10.67 C46.8596149,11.1000532 45.2991191,11.2824488 43.74,11.21 C42.1227612,11.0265691 40.5476507,10.5736403 39.08,9.87 C36.86,8.93 34.72,7.79 32.46,6.93 C30.2261761,5.99231966 27.8092536,5.57183669 25.39,5.7 C23.8628328,5.8174141 22.3887228,6.31222028 21.1,7.14 C20.4567795,7.54224415 19.8883281,8.05317367 19.42,8.65 C18.93,9.32 19.28,10.37 19.49,11.14 C20.6594195,10.1830275 22.1099343,9.63513333 23.62,9.58 C25.1211949,9.5182182 26.6213707,9.72478869 28.05,10.19 C30.64,10.95 33.05,12.19 35.56,13.19 C38.0248641,14.3130328 40.7013579,14.8960652 43.41,14.9 C46.91,14.74 50.13,13.04 53.22,11.37 C52.7703628,10.7091935 52.0464919,10.2866293 51.25,10.22 Z" id="_Tracé_26" fill="#FDD7A9" opacity="0.12"/>
                        </g>
                    </g>
                    <path d="M35.9,-1.39477536e-06 C16.0729775,-1.39477536e-06 0,16.0729775 0,35.9 C0,57.1 35.9,98.05 35.9,98.05 C35.9,98.05 71.81,58.68 71.81,35.9 C71.81,26.3769952 68.0263171,17.2441739 61.2915982,10.5113304 C54.5568792,3.77848685 45.4230045,-0.00265264759 35.9,-1.39477536e-06 Z M38.29,63.8 C25.976729,64.7952356 14.3495731,58.0051525 9.16585186,46.7919384 C3.98213064,35.5787242 6.34216469,22.3225475 15.0773561,13.5873561 C23.8125475,4.85216469 37.0687242,2.49213064 48.2819384,7.67585186 C59.4951525,12.8595731 66.2852356,24.486729 65.29,36.8 C64.1259398,51.2020063 52.6920063,62.6359398 38.29,63.8 L38.29,63.8 Z" id="Shape" fill="#F5A623" fill-rule="nonzero" mask="url(#mask-7)"/>
                </g>
                <g id="Pin_vert" transform="translate(625.000000, 150.000000)" fill-rule="nonzero" stroke="#7ECF27">
                    <path d="M24.4965882,0 C30.9946695,-0.00181166686 37.2272257,2.58193482 41.8227031,7.18265393 C46.4181805,11.783373 49,18.0240565 49,24.5313622 C49,40.0975017 24.4965882,67 24.4965882,67 C24.4965882,67 0,39.0178484 0,24.5313622 C0,10.9830655 10.9674961,0 24.4965882,0 Z M32.3922768,5.84651678 C24.7825357,2.32863368 15.7863574,3.93024834 9.85830289,9.85830289 C3.93024834,15.7863574 2.32863368,24.7825357 5.84651678,32.3922768 C9.36439987,40.0020179 17.2550586,44.6100432 25.6113429,43.934636 C35.3851274,43.1446577 43.1446577,35.3851274 43.934636,25.6113429 C44.6100432,17.2550586 40.0020179,9.36439987 32.3922768,5.84651678 Z" id="Shape"/>
                </g>
                
                
            <g id="Group-2" transform="translate(243.000000, 161.000000)">
                    <rect id="Rectangle-Copy" stroke="#50E3C2" transform="translate(55.420310, 55.539105) rotate(-315.000000) translate(-55.420310, -55.539105) " x="16.9203102" y="17.0391052" width="77" height="77" rx="7"/>
                    <rect id="Rectangle-Copy-2" fill="#4CB944" transform="translate(55.035534, 55.154329) rotate(-315.000000) translate(-55.035534, -55.154329) " x="29.0355339" y="29.1543289" width="52" height="52" rx="7"/>
                </g></g>
        </g>
    </g>
</svg>