<?xml version="1.0" encoding="UTF-8"?>
<svg width="306px" height="260px" viewBox="0 0 306 260" version="1.1" xmlns="http://www.w3.org/2000/svg" xmlns:xlink="http://www.w3.org/1999/xlink">
    <!-- Generator: Sketch 60.1 (88133) - https://sketch.com -->
    <title>Group 47</title>
    <desc>Created with Sketch.</desc>
    <defs>
        <polygon id="path-1" points="0.1605 0.406512702 263.237372 0.406512702 263.237372 63.6489607 0.1605 63.6489607"></polygon>
        <polygon id="path-3" points="0 0.313140878 94.2601479 0.313140878 94.2601479 172.827226 0 172.827226"></polygon>
    </defs>
    <g id="TAG-IP-ACCUEIL" stroke="none" stroke-width="1" fill="none" fill-rule="evenodd">
        <g id="02-st-votre_cercle" transform="translate(-49.000000, -235.000000)">
            <g id="Group-47" transform="translate(49.000000, 235.000000)">
                <path d="M266.17086,228.297413 C278.99046,225.858938 287.56086,214.04545 287.56086,214.04545 L285.70986,241.541201 C285.70986,241.541201 285.49866,254.048822 275.82966,248.282587 C266.15946,242.517552 235.19766,240.420739 235.19766,240.420739 C235.19766,240.420739 233.62086,227.893903 236.87646,226.328499 C243.22746,223.273949 257.69526,229.909053 266.17086,228.297413" id="Fill-1" fill="#260106"></path>
                <path d="M278.31498,233.756633 C278.52558,232.084346 282.04338,219.836725 282.04338,219.836725 L296.65638,197.985917 C297.69798,196.538804 299.43498,195.761206 301.20738,195.94855 C303.76458,196.219958 305.69058,198.401436 305.64558,200.973815 C305.54358,206.822314 304.61178,212.62758 302.87838,218.213076 L292.84338,250.559358 C291.70038,254.243192 287.58738,256.088411 284.07858,254.491783 L278.09298,251.767487 C276.01278,250.821159 275.18838,248.297418 276.31278,246.305686 C277.84818,243.589797 279.72198,240.242822 280.08078,239.471229 C280.70718,238.124393 278.31498,233.756633 278.31498,233.756633" id="Fill-3" fill="#260106"></path>
                <path d="M305.64546,200.973995 C305.69046,198.401617 303.76446,196.220139 301.20786,195.94873 C300.72306,195.89709 300.24246,195.924711 299.77746,196.011178 C302.29626,202.927898 302.12286,210.54776 299.23566,217.335381 L283.53666,254.245173 L284.07966,254.491963 C287.58726,256.088591 291.70026,254.243372 292.84326,250.559538 L302.87886,218.213256 C304.61166,212.627159 305.54346,206.822494 305.64546,200.973995" id="Fill-5" fill="#260106"></path>
                <path d="M59.40378,198.871838 C107.45598,155.583339 139.88118,124.977797 158.18538,147.253132 C182.31498,173.710083 176.94018,174.484079 208.62018,226.305741 L192.78858,236.942323 L141.24138,186.6014 L89.99658,235.268836 L21.32598,233.614564 L15.61458,201.490453 C15.61458,201.490453 37.01958,219.03655 59.40378,198.871838" id="Fill-7" fill="#052954"></path>
                <path d="M187.6863,136.984393 L176.3589,132.739127 L170.9493,128.995247 L171.8481,125.671691 C171.4971,124.517603 170.0757,124.118296 169.1805,124.921113 L159.5997,133.519127 L152.5899,143.908319 L98.1657,145.308596 L79.9113,115.409196 L63.7125,117.208781 C63.7125,117.208781 75.1005,159.480697 84.7797,167.576125 C91.0635,171.435894 137.5803,160.505686 154.6191,156.322268 C164.1933,153.97146 163.9113,160.895386 176.3457,151.217741 C178.5351,149.51363 179.5191,146.474092 181.7709,143.734185 C185.0601,139.732707 187.6863,136.984393 187.6863,136.984393" id="Fill-9" fill="#F7A56D"></path>
                <path d="M142.59282,141.867829 L98.94702,143.737067 L78.15642,98.8999769 L52.38882,116.380023 C52.38882,116.380023 72.02202,162.320162 81.70062,170.415589 C87.98502,174.275358 122.90082,166.834434 139.93962,162.650416 C147.77562,160.726536 145.63962,147.984134 144.60582,143.420624 C144.39282,142.480901 143.55042,141.826998 142.59282,141.867829" id="Fill-11" fill="#E8A114"></path>
                <path d="M180.31578,116.911432 L158.12118,142.184273 C157.54938,142.835173 157.61058,143.828938 158.25738,144.40418 L165.85398,151.155173 L190.11918,123.524919 L182.52258,116.773926 C181.87578,116.198684 180.88758,116.259931 180.31578,116.911432" id="Fill-13" fill="#3C3C3B"></path>
                <path d="M181.13256,119.064028 C180.67956,118.661118 179.98716,118.703751 179.58636,119.160702 L160.25016,141.178439 C159.84876,141.634189 159.89256,142.331326 160.34556,142.734236 L165.31296,147.148831 C165.76656,147.551741 166.45896,147.509109 166.85976,147.052157 L186.19536,125.03442 C186.59616,124.578069 186.55356,123.881533 186.09996,123.478023 L181.13256,119.064028 Z" id="Fill-15" fill="#FFFFFF"></path>
                <path d="M190.10388,123.485709 C189.71388,123.16146 189.10248,123.2143 188.73828,123.602799 L165.30768,148.60243 C164.94288,148.990928 164.96448,149.568573 165.35448,149.892222 L166.46688,150.816333 C166.85748,151.139381 167.46828,151.087141 167.83308,150.698042 L191.26428,125.699012 C191.62788,125.310513 191.60688,124.733469 191.21628,124.409219 L190.10388,123.485709 Z" id="Fill-17" fill="#BCBEC0"></path>
                <path d="M188.0214,126.075201 L186.0072,128.368965 C185.7642,128.644577 185.79,129.066102 186.0642,129.309889 C186.3384,129.553677 186.7578,129.527256 187.0002,129.251644 L189.0144,126.95788 C189.2574,126.682268 189.231,126.260744 188.9568,126.016956 C188.6826,125.773169 188.2632,125.799589 188.0214,126.075201" id="Fill-19" fill="#FFFFFF"></path>
                <path d="M182.92728,131.875182 L178.13448,137.332781 C177.89208,137.608993 177.91788,138.029917 178.19208,138.273704 C178.46628,138.518092 178.88568,138.491672 179.12808,138.21606 L183.92028,132.758462 C184.16328,132.482249 184.13748,132.061326 183.86328,131.816938 C183.58908,131.573751 183.16968,131.59897 182.92728,131.875182" id="Fill-21" fill="#FFFFFF"></path>
                <path d="M175.4484,135.754707 L175.4484,135.754707 C175.4892,134.373644 176.6358,133.288009 178.0092,133.329441 L186.2472,133.579233 C187.62,133.621266 188.6994,134.774152 188.658,136.155815 C188.6166,137.536277 187.47,138.621912 186.0972,138.57988 L177.8592,138.330688 C176.4858,138.288656 175.407,137.135169 175.4484,135.754707" id="Fill-23" fill="#F7A56D"></path>
                <path d="M172.3101,139.930979 L172.3101,139.930979 C172.3509,138.549917 173.4975,137.464282 174.8709,137.505714 L183.1089,137.755506 C184.4817,137.796938 185.5611,138.950425 185.5203,140.331487 C185.4783,141.71255 184.3317,142.798185 182.9595,142.756753 L174.7209,142.506961 C173.3475,142.465529 172.2687,141.312042 172.3101,139.930979" id="Fill-25" fill="#F7A56D"></path>
                <path d="M169.39626,143.251113 L169.39626,143.251113 C169.66806,141.896471 170.97966,141.019797 172.32606,141.293007 L180.40566,142.932268 C181.75206,143.204878 182.62326,144.524693 182.35146,145.879335 C182.08026,147.233376 180.76866,148.110051 179.42226,147.836841 L171.34266,146.19758 C169.99626,145.92437 169.12506,144.605155 169.39626,143.251113" id="Fill-27" fill="#F7A56D"></path>
                <path d="M167.6349,146.288009 L167.6349,146.288009 C168.0033,145.208379 169.1727,144.633737 170.2467,145.004222 L176.6883,147.230134 C177.7617,147.60182 178.3329,148.777524 177.9645,149.857155 C177.5955,150.936785 176.4261,151.512028 175.3527,151.140942 L168.9111,148.91503 C167.8377,148.543945 167.2665,147.36764 167.6349,146.288009" id="Fill-29" fill="#F7A56D"></path>
                <path d="M66.4218,75.7346374 L76.3632,56.6297413 L73.8246,29.0673395 L98.256,10.7040139 L130.167,33.179903 L125.7258,46.0664157 L123.1572,62.1335751 C123.0492,64.001612 121.6044,65.5171778 119.7444,65.7123279 L117.7656,65.9194873 L112.0416,76.1753764 C109.6488,80.5047067 104.0394,82.1673857 99.903,79.4581016 C99.873,79.4382864 99.8436,79.4184711 99.8142,79.3986559 L98.1126,78.2589792 L88.3884,95.2334365 L66.4218,75.7346374 Z" id="Fill-31" fill="#FFB380"></path>
                <g id="Group-35" transform="translate(4.800000, 196.246559)">
                    <mask id="mask-2" fill="white">
                        <use xlink:href="#path-1"></use>
                    </mask>
                    <g id="Clip-34"></g>
                    <path d="M3.2361,41.8137644 C12.5271,55.9066051 5.4405,65.1146882 33.5271,63.4568129 C61.6131,61.7983372 125.9445,42.2088684 153.7959,41.6612471 C172.3639,41.2961663 205.100593,43.0261069 252.00598,46.8510691 L254.936514,32.0278907 C207.877838,9.99904286 175.0341,-0.315842956 156.4053,1.08323326 C128.4609,3.18184758 90.5235,8.26775982 61.5897,9.83076212 C56.4177,6.62669746 53.0415,3.65381062 48.6915,0.406512702 C32.4849,8.61002309 16.5873,16.7799076 0.1605,24.9690069 C2.8011,29.8711778 0.2019,37.211224 3.2361,41.8137644 Z" id="Fill-33" fill="#041E3D" mask="url(#mask-2)"></path>
                </g>
                <g id="Group-38" transform="translate(0.000000, 64.144942)">
                    <mask id="mask-4" fill="white">
                        <use xlink:href="#path-3"></use>
                    </mask>
                    <g id="Clip-37"></g>
                    <path d="M75.0234,0.313140878 C51.4242,1.80288684 11.649,26.453649 3.855,77.3764203 C-3.939,128.299192 0.444,170.148984 13.764,172.504596 C27.084,174.860208 75.4284,164.426582 72.9132,137.581732 C70.3986,110.738083 47.0118,106.607506 83.7714,67.7528176 C90.6606,60.4704157 94.6914,50.7873672 94.2234,40.769261" id="Fill-36" fill="#E8A114" mask="url(#mask-4)"></path>
                </g>
                <path d="M71.38914,62.1028314 C71.38914,62.1028314 84.02754,54.8006143 84.47694,53.4874042 C84.70074,52.8341016 86.02854,49.038582 87.30714,45.3871732 C88.72614,41.3346559 93.07374,39.1099446 97.18734,40.332485 L95.09094,49.8846328 L99.26814,51.3521617 L104.97414,35.1931316 C105.93294,32.4790439 109.08054,31.2547021 111.61854,32.6093441 L127.45134,41.0602448 L130.11714,40.0274503 C135.01794,38.1305912 138.60774,33.855903 139.63074,28.6973349 C140.52474,24.1902679 139.35534,19.5198753 136.44294,15.9675427 L126.50934,3.85022171 L122.96094,9.95451732 L115.41414,4.92084527 C107.76174,-0.183080831 98.15754,-1.39421247 89.47914,1.65193072 L86.86374,2.57063741 C77.89734,5.7176582 71.01414,13.0228776 68.39994,22.1649099 C67.12614,26.6221386 66.93534,31.2841247 67.79934,35.7737783 C69.19134,43.0009376 70.48674,50.2455104 71.04534,57.5843557 L71.38914,62.1028314 Z" id="Fill-39" fill="#68482F"></path>
                <path d="M89.74128,68.6398799 C89.74128,68.6398799 87.33288,76.9923048 92.53248,87.8858845 L98.11308,78.2592794 L89.74128,68.6398799 Z" id="Fill-41" fill="#EFA878"></path>
                <path d="M151.72668,149.048753 L152.80308,137.186628 L162.22488,127.909492 L172.45848,125.392356 C172.49268,127.729954 171.11448,129.85679 168.96708,130.777898 L164.70288,132.606305 L170.89068,134.004781 L172.93008,138.048291 L171.49908,145.757621 C171.49908,145.757621 164.89308,159.603072 143.10048,165.432956 C121.30668,171.262841 120.84588,155.669446 120.84588,155.669446 L151.72668,149.048753 Z" id="Fill-43" fill="#F9B78A"></path>
                <path d="M78.36888,107.04242 C79.44348,114.812998 74.11608,160.752536 74.11608,160.752536 L145.17948,150.452813 C145.17948,150.452813 146.13288,166.688102 142.86048,167.878818 C130.38828,172.420711 46.42428,201.523898 38.87868,193.104222 C32.43648,185.916092 29.66028,156.185423 25.97088,137.799279 C20.02488,108.167085 35.98848,93.4461617 49.22868,89.194291 C64.73988,84.2134596 76.57488,94.0670393 78.36888,107.04242 Z" id="Fill-45" fill="#E18B09"></path>
            </g>
        </g>
    </g>
</svg>