<svg width="303px" height="72px" viewBox="0 0 303 72" version="1.1" xmlns="http://www.w3.org/2000/svg" xmlns:xlink="http://www.w3.org/1999/xlink">
    <defs>
        <polygon id="path-1" points="0.155037302 0.50688 16.7910754 0.50688 16.7910754 31.74016 0.155037302 31.74016"></polygon>
    </defs>
    <g id="TAG-IP-ACCUEIL" stroke="none" stroke-width="1" fill="none" fill-rule="evenodd">
        <g id="01-st_accueil-copy-3" transform="translate(-765.000000, -220.000000)">
            <g id="Group-34" transform="translate(765.000000, 220.000000)">
                <path d="M16.9001395,32.2931981 C23.3677933,28.0111148 42.6386824,28.0111148 49.0985672,32.2931981 C50.362317,33.1256444 51.9782593,36.4788791 53.4556553,40.5890016 L12.5443462,40.5890016 C14.0191526,36.4788791 15.6363897,33.1256444 16.9001395,32.2931981 M65.6270158,38.5463163 C65.305899,38.1463773 64.8203394,37.9144908 64.3140626,37.9144908 L57.8865484,37.9144908 C56.3029767,33.713177 54.2403196,29.5887244 51.8940956,28.0332613 C43.7768341,22.6555796 22.2296416,22.6555796 14.1110852,28.0332613 C11.7661561,29.5887244 9.70349891,33.713177 8.11215827,37.9144908 L1.69241304,37.9144908 C1.17966211,37.9144908 0.700576644,38.1463773 0.3794599,38.5463163 C0.0570483299,38.9436499 -0.0659601003,39.4582294 0.0337414695,39.9662952 L1.22239135,45.7178613 C1.24958269,45.8533455 1.37000147,45.9510505 1.50725298,45.9510505 L4.54620862,45.9510505 C2.70626147,48.0849271 1.81542147,50.7763734 1.80635769,53.4560951 C1.79081978,56.7780642 3.04421095,59.7756528 5.33734705,61.901713 C5.36324356,61.9173458 5.38784525,61.9434004 5.41244693,61.9577305 L5.41244693,69.8562005 C5.41244693,70.4867232 5.92131339,71 6.54800897,71 L15.2673644,71 C15.89406,71 16.4055161,70.4841177 16.4055161,69.8548977 L16.4055161,65.8437829 L49.6009595,65.8437829 L49.6009595,69.8562005 C49.6009595,70.4867232 50.1085312,71 50.7365216,71 L59.455877,71 C60.0825726,71 60.5940287,70.4841177 60.5940287,69.8548977 L60.5940287,62.0827928 C63.019237,59.8486058 64.1845801,56.7702478 64.200118,53.6905871 C64.2091817,50.9170686 63.2743177,48.1279173 61.3281948,45.9510505 L64.5031071,45.9510505 C64.6390638,45.9510505 64.7581878,45.8546483 64.7853791,45.719164 L65.9675549,39.9662952 C66.0646668,39.4582294 65.9416584,38.9436499 65.6270158,38.5463163" id="Fill-1" fill="#FFFFFF"></path>
                <g id="Group-6" transform="translate(25.000000, 52.000000)">
                    <path d="M0.125669231,0.993466667 C2.59720769,2.1348 5.30936154,2.69613333 8.26213077,2.6788 C11.2135923,2.6588 14.0735154,2.09746667 16.8366692,0.993466667" id="Fill-3" fill="#FFFFFF"></path>
                    <path d="M16.4977378,0.145169725 C16.9662392,-0.0420169631 17.4977795,0.186033722 17.6849662,0.654535186 C17.8721529,1.12303665 17.6441022,1.65457692 17.1756007,1.84176361 C14.3081884,2.98741941 11.3355236,3.57149473 8.2674931,3.59228426 C5.18262349,3.61039305 2.33797555,3.02128785 -0.257312822,1.82280797 C-0.715345376,1.61129282 -0.91518722,1.06851717 -0.703672072,0.610484614 C-0.492156925,0.15245206 0.0506187296,-0.0473897838 0.508651284,0.164125364 C2.8551311,1.24770778 5.43453437,1.78188281 8.25594076,1.76532097 C11.0947725,1.74608419 13.8417493,1.2063525 16.4977378,0.145169725 Z" id="Stroke-5" fill="#8C5CF7" fill-rule="nonzero"></path>
                </g>
                <path d="M39,40.9992794 C39,38.7899478 40.7896254,37 43,37 C45.2103746,37 47,38.7899478 47,40.9992794 C47,43.2100522 45.2103746,45 43,45 C40.7896254,45 39,43.2100522 39,40.9992794" id="Fill-7" fill="#FFFFFF"></path>
                <path d="M20,41 C20,38.7910663 21.7907437,37 23.9992797,37 C26.2092563,37 28,38.7910663 28,41 C28,43.2089337 26.2092563,45 23.9992797,45 C21.7907437,45 20,43.2089337 20,41" id="Fill-9" fill="#FFFFFF"></path>
                <path d="M68.960701,5.0312804 L73.6911545,9.75864985 C73.9555733,10.0215751 74.0600188,10.4060537 73.9661501,10.7680714 C73.8722814,11.1274466 73.5933195,11.4115116 73.2323877,11.5119252 L66.7726348,13.2427396 L60.3234587,14.9629842 C59.9598828,15.0620766 59.5725091,14.9590205 59.3067682,14.6921315 C59.0410272,14.4265638 58.9379038,14.0394428 59.0370609,13.6774251 L60.7676824,7.21924122 L62.4983039,0.76634229 C62.598783,0.406967084 62.8830333,0.128187052 63.2439651,0.0343795533 C63.6048968,-0.0607491778 63.9896263,0.0449494124 64.252723,0.309195888 L68.960701,5.0312804 Z" id="Fill-11" fill="#FFFFFF"></path>
                <path d="M99.7253343,45.5985856 C95.9967151,45.5985856 94.6049447,47.3237077 94.6049447,49.0931975 C94.6049447,54.8857973 111,52.1884997 111,63.2438963 C111,68.6384913 107.137506,72 99.7253343,72 C94.3796104,72 90.1115145,69.390133 88.3605348,66.605405 C88.136526,66.250463 88,65.8080906 88,65.3657181 C88,64.0399057 89.0789534,62.9776898 90.3819156,62.9776898 C91.3694099,62.9776898 91.9102121,63.5101027 92.3582296,63.9511702 C94.2444099,65.8080906 96.625,67.3126789 99.7253343,67.3126789 C103.813163,67.3126789 105.789477,65.9855615 105.789477,63.2438963 C105.789477,56.7870854 89.3930959,59.7505893 89.3930959,49.0931975 C89.3930959,44.7138407 92.5822384,41 99.7253343,41 C104.217439,41 108.125,42.6350817 109.922372,45.1562132 C110.191448,45.5542179 110.371715,46.0409581 110.371715,46.572066 C110.371715,47.8548156 109.294087,48.9157266 107.946058,48.9157266 C107.317773,48.9157266 106.688163,48.5620896 106.013485,47.9422462 C104.621715,46.6151288 102.286192,45.5985856 99.7253343,45.5985856" id="Fill-13" fill="#FFFFFF"></path>
                <path d="M146,58.6756556 L146,69.7061558 C146,71.0288265 144.937613,72 143.60865,72 C142.192134,72 141.2173,71.0288265 141.2173,69.7061558 L141.2173,59.5583039 C141.2173,57.0431467 140.199342,55.3234145 137.320575,55.3234145 C134.132108,55.3234145 132.892004,57.0431467 132.892004,59.5153431 L132.892004,69.7061558 C132.892004,71.0288265 131.82831,72 130.500653,72 C129.084138,72 128.109303,71.0288265 128.109303,69.7061558 L128.109303,59.5583039 C128.109303,57.0431467 127.090039,55.3234145 124.211272,55.3234145 C120.890823,55.3234145 119.784007,57.2644597 119.784007,59.8668402 L119.784007,69.7061558 C119.784007,71.0288265 118.764743,72 117.39135,72 C116.019264,72 115,71.0288265 115,69.7061558 L115,53.6466431 C115,52.3226706 116.063693,51.2642738 117.39135,51.2642738 C118.720314,51.2642738 119.784007,52.3226706 119.784007,53.6466431 C120.624247,52.3669332 122.485057,51 125.451376,51 C129.084138,51 130.899212,52.1456202 132.006028,53.8679561 C133.42385,51.9698717 135.327783,51 138.339839,51 C144.361337,51 146,54.8378278 146,58.6756556" id="Fill-15" fill="#FFFFFF"></path>
                <path d="M162.185305,64.1415864 L162.185305,62.9190234 L156.920478,62.9190234 C154.94069,62.9190234 153.859841,63.8362677 153.859841,65.4066622 C153.859841,67.0672351 155.076129,68.0707932 157.595013,68.0707932 C159.981115,68.0707932 162.185305,66.5854242 162.185305,64.1415864 M153.590292,56.8500092 C153.140159,57.1553279 152.780319,57.2867309 152.241222,57.2867309 C151.07008,57.2867309 150.125996,56.3694865 150.125996,55.2345255 C150.125996,54.7540028 150.305252,54.2309674 150.710239,53.7942458 C151.970345,52.4402797 154.221009,51 158.090292,51 C163.669814,51 167,53.6628428 167,58.2902889 L167,69.4672719 C167,70.733636 165.920478,71.7822833 164.615226,71.7822833 C163.311301,71.7822833 162.230451,70.733636 162.230451,69.4672719 C161.015491,71.3455616 159.035704,72 156.336235,72 C151.925199,72 149,69.335869 149,65.4066622 C149,61.3473407 152.375332,59.2513343 156.291089,59.2513343 L162.185305,59.2513343 L162.185305,58.4654929 C162.185305,56.5008895 160.700797,55.1907245 158.090292,55.1907245 C156.110505,55.1907245 154.71496,56.0628796 153.590292,56.8500092" id="Fill-17" fill="#FFFFFF"></path>
                <path d="M175.44911,53.8294819 C176.231959,52.1049199 178.167201,51 179.898221,51 C181.051829,51 182,52.0162132 182,53.2554976 C182,54.4921729 181.051829,55.5083861 179.898221,55.5083861 C177.056139,55.5083861 175.44911,57.4534104 175.44911,60.4159523 L175.44911,69.6127469 C175.44911,70.938129 174.460824,72 173.224555,72 C171.988286,72 171,70.938129 171,69.6127469 L171,53.6077152 C171,52.2810287 171.988286,51.2204622 173.224555,51.2204622 C174.460824,51.2204622 175.44911,52.2810287 175.44911,53.6077152 L175.44911,53.8294819 Z" id="Fill-19" fill="#FFFFFF"></path>
                <path d="M187.833594,47.3899808 C187.833594,46.0826068 188.833035,45 190.041462,45 C191.248659,45 192.249329,46.0826068 192.249329,47.3899808 L192.249329,51.1764445 L194.12405,51.1764445 C195.166518,51.1764445 196,52.0768435 196,53.2033397 C196,54.331166 195.166518,55.2315649 194.12405,55.2315649 L192.249329,55.2315649 L192.249329,66.1400916 C192.249329,67.176149 193.082812,67.7626718 193.8327,67.7626718 C194.915735,67.7626718 195.791015,68.7082902 195.791015,69.8813359 C195.791015,71.0530516 194.915735,72 193.8327,72 C190.123827,72 187.833594,69.4304714 187.833594,65.8701049 L187.833594,55.2315649 L186.87595,55.2315649 C185.833482,55.2315649 185,54.331166 185,53.2033397 C185,52.0768435 185.833482,51.1764445 186.87595,51.1764445 L187.833594,51.1764445 L187.833594,47.3899808 Z" id="Fill-21" fill="#FFFFFF"></path>
                <path d="M223.046345,46.4936956 L223.046345,69.44443 C223.046345,70.8535032 221.903987,72 220.5,72 C219.094718,72 217.953655,70.8535032 217.953655,69.44443 L217.953655,46.4936956 L211.239385,46.4936956 C210.010249,46.4936956 209,45.4797868 209,44.2461978 C209,43.0126089 210.010249,42 211.239385,42 L229.76191,42 C230.991046,42 232,43.0126089 232,44.2461978 C232,45.4797868 230.991046,46.4936956 229.76191,46.4936956 L223.046345,46.4936956 Z" id="Fill-23" fill="#FFFFFF"></path>
                <path d="M236.44911,53.8294819 C237.231959,52.1049199 239.168416,51 240.898221,51 C242.051829,51 243,52.0162132 243,53.2554976 C243,54.4921729 242.051829,55.5083861 240.898221,55.5083861 C238.056139,55.5083861 236.44911,57.4534104 236.44911,60.4159523 L236.44911,69.6127469 C236.44911,70.938129 235.460824,72 234.224555,72 C232.988286,72 232,70.938129 232,69.6127469 L232,53.6077152 C232,52.2810287 232.988286,51.2204622 234.224555,51.2204622 C235.460824,51.2204622 236.44911,52.2810287 236.44911,53.6077152 L236.44911,53.8294819 Z" id="Fill-25" fill="#FFFFFF"></path>
                <path d="M257.185305,64.1415864 L257.185305,62.9190234 L251.920478,62.9190234 C249.94069,62.9190234 248.859841,63.8362677 248.859841,65.4066622 C248.859841,67.0672351 250.076129,68.0707932 252.595013,68.0707932 C254.981115,68.0707932 257.185305,66.5854242 257.185305,64.1415864 M248.590292,56.8500092 C248.140159,57.1553279 247.780319,57.2867309 247.241222,57.2867309 C246.07008,57.2867309 245.125996,56.3694865 245.125996,55.2345255 C245.125996,54.7540028 245.305252,54.2309674 245.710239,53.7942458 C246.970345,52.4402797 249.221009,51 253.090292,51 C258.669814,51 262,53.6628428 262,58.2902889 L262,69.4672719 C262,70.733636 260.920478,71.7822833 259.615226,71.7822833 C258.311301,71.7822833 257.230451,70.733636 257.230451,69.4672719 C256.015491,71.3455616 254.035704,72 251.336235,72 C246.925199,72 244,69.335869 244,65.4066622 C244,61.3473407 247.375332,59.2513343 251.291089,59.2513343 L257.185305,59.2513343 L257.185305,58.4654929 C257.185305,56.5008895 255.700797,55.1907245 253.090292,55.1907245 C251.110505,55.1907245 249.71496,56.0628796 248.590292,56.8500092" id="Fill-27" fill="#FFFFFF"></path>
                <path d="M274.363241,51 C278.333134,51 280.619832,53.0084044 281.396495,54.0119625 C281.741537,54.4924851 281.870132,54.8416048 281.870132,55.3659285 C281.870132,56.5446905 280.966147,57.4619349 279.801153,57.4619349 C279.109796,57.4619349 278.591597,57.1553279 278.204539,56.7186062 C277.641777,56.1079688 276.520072,55.0168088 274.363241,55.0168088 C271.34317,55.0168088 269.703265,57.3743329 269.703265,61.4787436 C269.703265,65.6694681 271.34317,67.9831912 274.363241,67.9831912 C276.348188,67.9831912 277.641777,66.9783449 278.634886,66.2363045 C279.109796,65.8884731 279.498128,65.7995828 279.929748,65.7995828 C281.094742,65.7995828 282,66.7168272 282,67.8955892 C282,68.5075149 281.784826,69.0305503 281.266627,69.5110729 C280.27479,70.4283173 277.901513,72 274.363241,72 C268.494982,72 265,68.5938286 265,61.4787436 C265,54.3610821 268.494982,51 274.363241,51" id="Fill-29" fill="#FFFFFF"></path>
                <g id="Group-33" transform="translate(286.000000, 40.000000)">
                    <mask id="mask-2" fill="white">
                        <use xlink:href="#path-1"></use>
                    </mask>
                    <g id="Clip-32"></g>
                    <path d="M12.7084579,30.8288 L6.23564048,22.15296 L4.84622778,23.23712 L4.84622778,29.48352 C4.84622778,30.78528 3.80416825,31.74016 2.50063254,31.74016 C1.15351746,31.74016 0.155037302,30.78528 0.155037302,29.48352 L0.155037302,2.76224 C0.155037302,1.46176 1.15351746,0.50688 2.50063254,0.50688 C3.80416825,0.50688 4.84622778,1.46176 4.84622778,2.76224 L4.84622778,18.07488 L12.7084579,11.91552 C13.2724262,11.4816 13.7069381,11.35104 14.2286087,11.35104 C15.4885651,11.35104 16.4870452,12.34816 16.4870452,13.60768 C16.4870452,14.25792 16.1832714,14.95296 15.6193032,15.38688 L9.92835079,19.72352 L16.3140095,28.096 C16.6613627,28.57216 16.7921008,29.0496 16.7921008,29.48352 C16.7921008,30.74176 15.7923389,31.74016 14.5323825,31.74016 C13.7069381,31.74016 13.0993905,31.34848 12.7084579,30.8288" id="Fill-31" fill="#FFFFFF" mask="url(#mask-2)"></path>
                </g>
            </g>
        </g>
    </g>
</svg>