<?xml version="1.0" encoding="UTF-8"?>
<svg width="80px" height="70px" viewBox="0 0 80 70" version="1.1" xmlns="http://www.w3.org/2000/svg" xmlns:xlink="http://www.w3.org/1999/xlink">
    <!-- Generator: Sketch 60.1 (88133) - https://sketch.com -->
    <title>tablet-ico</title>
    <desc>Created with Sketch.</desc>
    <defs>
        <polygon id="path-1" points="25.5 0 0 0 0 69 51 69 51 0"></polygon>
    </defs>
    <g id="TAG-IP-ACCUEIL" stroke="none" stroke-width="1" fill="none" fill-rule="evenodd">
        <g id="03-Forms" transform="translate(-38.000000, -3191.000000)">
            <g id="tablet-ico" transform="translate(38.000000, 3191.000000)">
                <path d="M79.549563,49.6447059 C79.4876665,49.3115535 79.2850161,49.0306925 78.9945871,48.8555107 C72.2983112,44.8824572 68.3686546,44.0580722 65.4960844,43.4620374 C65.1260271,43.3827781 64.7646705,43.3126176 64.4213762,43.2337968 L63.1789307,33.0694144 C63.1349863,30.8242807 61.2846996,29 59.0199706,29 C56.7820047,29 54.9758826,30.7189305 54.8614511,32.928984 C54.8614511,32.972615 54.85242,33.0078048 54.85242,33.0518743 L54.85242,39.0329412 L54.7556103,53.6349706 L53.1698705,52.416262 C52.8613793,52.1528316 50.7116324,50.4253503 48.0506337,50.4253503 C46.2532123,50.4253503 44.6584413,51.1794652 43.3104854,52.6530535 C42.931507,53.0650267 42.8962634,53.6790401 43.2223765,54.1350829 C43.3368079,54.2927246 46.0681836,58.0991471 50.3501657,61.9755107 C52.8875917,64.264385 55.4427496,66.097107 57.9452624,67.4216043 C61.1349145,69.1054545 64.2536389,69.9739091 67.2230187,70 L67.3641031,70 C71.4172223,70 74.5715207,68.6669519 76.7389995,66.0449251 C81.5673668,60.2039599 79.6287509,50.0742193 79.549563,49.6447059 L79.549563,49.6447059 Z M75.2703086,63.9354293 C73.5694813,65.9725635 71.018185,67 67.6960404,67 L67.571903,67 C61.645197,66.9562515 55.9577962,62.9951632 52.2367728,59.6780048 C49.2693225,57.0313301 47.0277608,54.3671342 46,53.0612092 C46.6998651,52.5303507 47.4529953,52.2692745 48.2857462,52.2692745 C50.2080498,52.2692745 51.8738839,53.6708585 51.8825214,53.6882709 C51.9002395,53.7056832 51.9270382,53.7230955 51.9444241,53.7406167 L55.4792966,56.4131923 C55.8427393,56.6831923 56.3211281,56.7354293 56.7372821,56.5351874 C57.1447985,56.3435429 57.401711,55.9345707 57.4107915,55.4903386 L57.5258485,38.617896 L57.5258485,32.7062999 C57.5522041,31.7486215 58.3407705,31 59.315377,31 C60.3077016,31 61.1049056,31.79237 61.1049056,32.7586457 C61.1049056,32.8019589 61.1049056,32.8543047 61.1135431,32.8980532 L62.4514815,43.8590085 C62.5133841,44.33763 62.8589979,44.7296252 63.3283062,44.8516203 C63.9663794,45.0169287 64.6217278,45.156445 65.321593,45.2954172 C68.1212749,45.870133 71.5939127,46.5928537 77.6888299,50.0927328 C77.9903699,52.1124547 78.8494765,59.6605925 75.2703086,63.9354293 L75.2703086,63.9354293 Z" id="hand" fill="#0071BC"></path>
                <mask id="mask-2" fill="white">
                    <use xlink:href="#path-1"></use>
                </mask>
                <g id="Clip-2"></g>
                <path d="M46.2729832,0 L4.72701684,0 C2.11228952,0 0,2.10082736 0,4.68626586 L0,64.3111969 C0,66.8991726 2.11228952,69 4.72701684,69 L46.2729832,69 C48.885147,69 51,66.8991726 51,64.3111969 L51,4.68626586 C51,2.10082736 48.885147,0 46.2729832,0 L46.2729832,0 Z M25.5038452,67.2467733 C23.9426992,67.2467733 22.6917316,65.9984556 22.6917316,64.4608935 C22.6917316,62.9258687 23.9426992,61.6750138 25.5038452,61.6750138 C27.0573008,61.6750138 28.3082684,62.9258687 28.3082684,64.4608935 C28.3082684,65.9984556 27.0573008,67.2467733 25.5038452,67.2467733 L25.5038452,67.2467733 Z M4.78597638,59.2367347 L46.2114602,59.2367347 L46.2114602,5.63011583 L4.78597638,5.63011583 L4.78597638,59.2367347 Z" id="Fill-1" fill="#0071BC" mask="url(#mask-2)"></path>
            </g>
        </g>
    </g>
</svg>