<?xml version="1.0" encoding="UTF-8"?>
<svg width="158px" height="208px" viewBox="0 0 158 208" version="1.1" xmlns="http://www.w3.org/2000/svg" xmlns:xlink="http://www.w3.org/1999/xlink">
    <!-- Generator: Sketch 60.1 (88133) - https://sketch.com -->
    <title>Group 7</title>
    <desc>Created with Sketch.</desc>
    <defs>
        <filter x="-30.9%" y="-33.9%" width="161.8%" height="167.7%" filterUnits="objectBoundingBox" id="filter-1">
            <feOffset dx="0" dy="2" in="SourceAlpha" result="shadowOffsetOuter1"></feOffset>
            <feGaussianBlur stdDeviation="1.5" in="shadowOffsetOuter1" result="shadowBlurOuter1"></feGaussianBlur>
            <feColorMatrix values="0 0 0 0 0   0 0 0 0 0   0 0 0 0 0  0 0 0 0.5 0" type="matrix" in="shadowBlurOuter1" result="shadowMatrixOuter1"></feColorMatrix>
            <feMerge>
                <feMergeNode in="shadowMatrixOuter1"></feMergeNode>
                <feMergeNode in="SourceGraphic"></feMergeNode>
            </feMerge>
        </filter>
    </defs>
    <g id="TAG-IP-ACCUEIL" stroke="none" stroke-width="1" fill="none" fill-rule="evenodd">
        <g id="03-st-les_avantages" transform="translate(-107.000000, -553.000000)">
            <g id="Group-7" transform="translate(107.000000, 552.000000)">
                <g id="bouton-panique" transform="translate(0.000000, 72.000000)">
                    <path d="M26.3139547,102.057085 C31.4503168,96.4038057 37.0569164,94.7078218 43.1337534,96.9691337 C49.2105905,99.2304455 52.9296338,100.926429 54.2908832,102.057085 C60.2952032,96.497452 65.4262347,95.1075436 69.6839775,97.8873603 C73.9417204,100.667177 76.3803945,104.932332 77,110.682827 C74.0484805,118.227609 66.1491344,122 53.3019616,122 C40.4547888,122 30.0208016,117.613674 22,108.841021 L26.3139547,102.057085 Z" id="Path-2" fill="#E71D73"></path>
                    <rect id="Rectangle" fill="#FFFFFF" transform="translate(49.000000, 68.500000) rotate(180.000000) translate(-49.000000, -68.500000) " x="0" y="0" width="98" height="137" rx="34.8848677"></rect>
                    <rect id="Rectangle" fill="#5D4495" transform="translate(49.000000, 92.000000) rotate(180.000000) translate(-49.000000, -92.000000) " x="23" y="66" width="52" height="52" rx="21.8792471"></rect>
                    <circle id="Oval" fill="#5D4495" cx="38" cy="56" r="3"></circle>
                    <circle id="Oval" fill="#5D4495" cx="61" cy="56" r="3"></circle>
                    <rect id="Rectangle" fill="#5D4495" x="32" y="8" width="33" height="6" rx="2.8449795"></rect>
                </g>
                <g id="Plan-de-travail-28-Copy-2" filter="url(#filter-1)" transform="translate(133.000000, 23.500000) rotate(220.000000) translate(-133.000000, -23.500000) translate(116.000000, 8.000000)" fill-rule="nonzero">
                    <path d="M30.4517949,30.1364286 L18.695641,28.2077857 C17.5738543,28.0247463 16.4305047,28.0247463 15.3087179,28.2077857 L3.55038462,30.1364286 L3.49807692,30.1364286 C2.5295598,30.1364286 1.63473175,29.6110399 1.15058632,28.7588211 C0.666440896,27.9066023 0.666510619,26.8567238 1.15076923,26.0045714 L14.6635897,2.24307143 C15.1481045,1.39152902 16.042772,0.867072034 17.0108974,0.867072034 C17.9790228,0.867072034 18.8736903,1.39152902 19.3582051,2.24307143 L32.8601282,26.0045714 C33.3443868,26.8567238 33.3444565,27.9066023 32.8603111,28.7588211 C32.3761657,29.6110399 31.4813376,30.1364286 30.5128205,30.1364286 L30.4517949,30.1364286 Z" id="Shape" fill="#4CB944"></path>
                    <path d="M17,1.53225981 C17.7351568,1.52856006 18.4154235,1.92699502 18.780641,2.57521429 L25.5370513,14.4570714 L32.2934615,26.3367143 C32.6608845,26.9832701 32.6609942,27.7798337 32.2937494,28.426494 C31.9265046,29.0731542 31.247666,29.4717254 30.5128205,29.4721429 L18.8089744,27.5523571 C17.617929,27.3574905 16.4038659,27.3574905 15.2128205,27.5523571 L3.49807692,29.4721429 C2.76323144,29.4717254 2.08439284,29.0731542 1.71714805,28.426494 C1.34990327,27.7798337 1.35001298,26.9832701 1.7174359,26.3367143 L8.47384615,14.4570714 L15.2302564,2.57521429 C15.5938767,1.930776 16.2688576,1.53300261 17,1.53225981 L17,1.53225981 Z M17,0.203609819 C15.796379,0.195968265 14.68231,0.848669462 14.0860256,1.91092857 L7.32961538,13.7927857 L0.573205128,25.6724286 C-0.0288712179,26.7318916 -0.0278652632,28.0374491 0.575843013,29.0959531 C1.17955129,30.1544571 2.29394214,30.804566 3.49807692,30.8007313 L3.60269231,30.8007313 L3.70512821,30.7785714 L15.4089744,28.8587857 C16.4622323,28.6875598 17.5355882,28.6875598 18.5888462,28.8587857 L30.2948718,30.7785714 L30.3994872,30.7962857 L30.5128205,30.7962857 C31.7150093,30.7961724 32.8258268,30.1444972 33.4268729,29.0867198 C34.027919,28.0289425 34.0278893,26.725749 33.4267949,25.668 L26.6703846,13.7883571 L19.9139744,1.9065 C19.3172447,0.845261661 18.2029563,0.194125365 17,0.203609819 Z" id="Shape" fill="#FFFFFF"></path>
                </g>
            </g>
        </g>
    </g>
</svg>