<?xml version="1.0" encoding="UTF-8" standalone="no"?>
<svg width="45px" height="43px" viewBox="0 0 45 43" version="1.1" xmlns="http://www.w3.org/2000/svg" xmlns:xlink="http://www.w3.org/1999/xlink">
    <!-- Generator: Sketch 40.3 (33839) - http://www.bohemiancoding.com/sketch -->
    <title>qr-code</title>
    <desc>Created with Sketch.</desc>
    <defs>
        <polygon id="path-1" points="2.46577586 0.0816058394 0.0103448276 0.0816058394 0.0103448276 42.9681423 4.9212069 42.9681423 4.9212069 0.0816058394"/>
    </defs>
    <g id="TAG-IP-ACCUEIL" stroke="none" stroke-width="1" fill="none" fill-rule="evenodd">
        <g id="03-Forms" transform="translate(-373.000000, -3767.000000)">
            <g id="qr-code" transform="translate(373.000000, 3767.000000)">
                <g id="Group-3">
                    <mask id="mask-2" fill="white">
                        <use xlink:href="#path-1"/>
                    </mask>
                    <g id="Clip-2"/>
                    <path d="M4.43827586,0.0816058394 L0.482931034,0.0816058394 C0.216206897,0.0816058394 0,0.27840146 0,0.521178832 L0,42.5287263 C0,42.7713467 0.216206897,42.9681423 0.482931034,42.9681423 L4.43827586,42.9681423 C4.705,42.9681423 4.9212069,42.7713467 4.9212069,42.5287263 L4.9212069,0.521178832 C4.9212069,0.27840146 4.705,0.0816058394 4.43827586,0.0816058394 L4.43827586,0.0816058394 Z" id="Fill-1" fill="#000000" mask="url(#mask-2)"/>
                </g>
                <path d="M7.32769023,36 L8.67184113,36 C8.85308418,36 9,35.800758 9,35.5547664 L9,0.445392627 C9,0.199401055 8.85308418,0 8.67184113,0 L7.32769023,0 C7.14644719,0 7,0.199401055 7,0.445392627 L7,35.5547664 C7,35.800758 7.14691582,36 7.32769023,36 L7.32769023,36 Z" id="Fill-4" fill="#FFFFFF"/>
                <path d="M15.2736287,36 L16.7263713,36 C16.8774972,36 17,35.800758 17,35.5547664 L17,0.445392627 C17,0.199401055 16.8774972,0 16.7263713,0 L15.2736287,0 C15.1225028,0 15,0.199401055 15,0.445392627 L15,35.5547664 C15,35.800758 15.1225028,36 15.2736287,36 L15.2736287,36 Z" id="Fill-5" fill="#FFFFFF"/>
                <path d="M21.2794433,36 L22.7205567,36 C22.874894,36 23,35.800758 23,35.5547664 L23,0.445392627 C23,0.199401055 22.874894,0 22.7205567,0 L21.2794433,0 C21.125106,0 21,0.199401055 21,0.445392627 L21,35.5547664 C21,35.800758 21.125106,36 21.2794433,36 L21.2794433,36 Z" id="Fill-6" fill="#FFFFFF"/>
                <path d="M27.4899625,36 L31.509512,36 C31.7805066,36 32,35.800758 32,35.5547664 L32,0.445392627 C32,0.199401055 31.7805066,0 31.509512,0 L27.4899625,0 C27.2189679,0 27,0.199401055 27,0.445392627 L27,35.5547664 C27,35.800758 27.2196686,36 27.4899625,36 L27.4899625,36 Z" id="Fill-7" fill="#FFFFFF"/>
                <path d="M35.2680195,36 L36.7322676,36 C36.8803484,36 37,35.800758 37,35.5547664 L37,0.445392627 C37,0.199401055 36.8803484,0 36.7322676,0 L35.2680195,0 C35.1200345,0 35,0.199401055 35,0.445392627 L35,35.5547664 C35,35.800758 35.1200345,36 35.2680195,36 L35.2680195,36 Z" id="Fill-8" fill="#FFFFFF"/>
                <path d="M44.5094055,0 L40.4904193,0 C40.2196378,0 40,0.197316276 40,0.440735957 L40,42.5594214 C40,42.8026837 40.2196378,43 40.4904193,43 L44.5094055,43 C44.7803622,43 45,42.8026837 45,42.5594214 L45,0.440735957 C45,0.197316276 44.7803622,0 44.5094055,0 L44.5094055,0 Z" id="Fill-9" fill="#FFFFFF"/>
                <path d="M8.49594385,37 C6.90945965,37 6,38.0922693 6,39.9963023 C6,41.9054949 6.90945965,43 8.49594385,43 C10.0871896,43 11,41.9054949 11,39.9963023 C11,38.0922693 10.0871896,37 8.49594385,37 L8.49594385,37 Z M8.49594385,42.2260727 C7.3660412,42.2260727 6.79359481,41.4755353 6.79359481,39.9963023 C6.79359481,38.5222289 7.3660412,37.7746152 8.49594385,37.7746152 C9.63043172,37.7746152 10.2064052,38.5222289 10.2064052,39.9963023 C10.2064052,40.8292201 9.98384594,42.2260727 8.49594385,42.2260727 L8.49594385,42.2260727 Z" id="Fill-10" fill="#FFFFFF"/>
                <path d="M12.6140539,37 L11.3859461,37 C11.1726413,37 11,37.1671683 11,37.372861 L11,37.4024422 C11,37.6079629 11.1726413,37.7746152 11.3859461,37.7746152 L12.1968967,37.7746152 L12.1968967,42.627655 C12.1968967,42.8333477 12.3702515,43 12.5828429,43 L12.6140539,43 C12.8273587,43 13,42.8333477 13,42.627655 L13,37.372861 C13,37.1671683 12.8273587,37 12.6140539,37 L12.6140539,37 Z" id="Fill-11" fill="#FFFFFF"/>
                <path d="M16.6749775,41 L15.3250225,41 C15.1447882,41 15,41.2151421 15,41.4804618 L15,41.5186501 C15,41.7848579 15.1447882,42 15.3250225,42 L16.6749775,42 C16.8544608,42 17,41.7848579 17,41.5186501 L17,41.4804618 C17,41.2151421 16.8544608,41 16.6749775,41 L16.6749775,41 Z" id="Fill-12" fill="#FFFFFF"/>
                <path d="M18.4959438,37 C16.9099887,37 16,38.0922693 16,39.9963023 C16,41.9054949 16.9099887,43 18.4959438,43 C20.0871896,43 21,41.9054949 21,39.9963023 C21,38.0922693 20.087895,37 18.4959438,37 L18.4959438,37 Z M18.4959438,42.2260727 C17.3667466,42.2260727 16.7943002,41.4755353 16.7943002,39.9963023 C16.7943002,38.5222289 17.3667466,37.7746152 18.4959438,37.7746152 C19.6311371,37.7746152 20.2064052,38.5222289 20.2064052,39.9963023 C20.2064052,40.8292201 19.9838459,42.2260727 18.4959438,42.2260727 L18.4959438,42.2260727 Z" id="Fill-13" fill="#FFFFFF"/>
                <path d="M22.6133749,37 L21.3859117,37 C21.1728043,37 21,37.1671683 21,37.372861 L21,37.4024422 C21,37.6079629 21.1728043,37.7746152 21.3859117,37.7746152 L22.19679,37.7746152 L22.19679,42.627655 C22.19679,42.8333477 22.3695943,43 22.5827017,43 L22.6133749,43 C22.8271957,43 23,42.8333477 23,42.627655 L23,37.372861 C23,37.1671683 22.8271957,37 22.6133749,37 L22.6133749,37 Z" id="Fill-14" fill="#FFFFFF"/>
                <path d="M26.6388924,42.2256234 L24.1229648,42.2256234 L25.6363523,40.4849527 C26.2473038,39.828031 26.6122423,39.1098882 26.6122423,38.5650903 C26.6122423,37.6146174 25.9180096,37 24.8431813,37 C24.2380595,37 23.6017905,37.2780739 23.1405788,37.744282 C23.0716219,37.8141015 23.0324797,37.9088564 23.0324797,38.0082545 C23.0311472,38.1076526 23.0696232,38.2030954 23.1372476,38.2736028 L23.1567354,38.2937231 C23.2966479,38.4381771 23.5230065,38.4395529 23.6642515,38.2971625 C23.9830523,37.9747206 24.4352696,37.7745486 24.8438476,37.7745486 C25.1496565,37.7745486 25.8620446,37.8517627 25.8620446,38.5650903 C25.8620446,38.8237317 25.6616698,39.3423904 25.088528,39.9597592 L23.0929419,42.2490112 C23.033146,42.316939 23,42.4061909 23,42.4981943 L23,42.6271711 C23,42.833534 23.1613991,43 23.3604414,43 L26.6388924,43 C26.8387674,43 27,42.833534 27,42.6271711 L27,42.5977644 C27,42.3920894 26.8387674,42.2256234 26.6388924,42.2256234 L26.6388924,42.2256234 Z" id="Fill-15" fill="#FFFFFF"/>
                <path d="M29.1734313,39.3634018 L30.6488183,37.6671253 C30.7067598,37.5991917 30.7390869,37.5145756 30.7390869,37.425832 L30.7390869,37.372173 C30.7390869,37.1666523 30.5680889,37 30.3568146,37 L27.575272,37 C27.3641744,37 27.1929998,37.1666523 27.1929998,37.372173 L27.1929998,37.4024422 C27.1929998,37.6079629 27.3641744,37.7746152 27.575272,37.7746152 L29.5177236,37.7746152 L28.0508158,39.4547253 C27.9921678,39.5219709 27.9589575,39.6072749 27.9589575,39.6953306 L27.9589575,39.7489896 C27.9589575,39.9551982 28.1308386,40.1218505 28.3419363,40.1218505 L28.8317888,40.1218505 C29.4576624,40.1218505 30.2043651,40.2912546 30.2043651,41.0966549 C30.2043651,41.8035085 29.6964942,42.2253848 28.8469807,42.2253848 C28.4178961,42.2253848 27.9534813,42.0970849 27.6049494,41.8814171 C27.4358946,41.7778829 27.213668,41.8176111 27.0942521,41.9727406 L27.0764103,41.9963023 C27.0122861,42.0795425 26.9866718,42.1856565 27.0066333,42.2885029 C27.0260649,42.3906613 27.0894825,42.4806088 27.1806343,42.5356436 C27.6690736,42.8305959 28.2763988,43 28.8469807,43 C30.134588,43 31,42.2226331 31,41.0656978 C31,40.1151432 30.2941036,39.4708917 29.1734313,39.3634018 L29.1734313,39.3634018 Z" id="Fill-16" fill="#FFFFFF"/>
                <path d="M33.6487013,40.6250752 L33.186526,40.6250752 L33.186526,39.2813656 C33.186526,39.0758449 33.0292208,38.9085046 32.8352273,38.9085046 L32.8066558,38.9085046 C32.6126623,38.9085046 32.4553571,39.0758449 32.4553571,39.2813656 L32.4553571,40.6250752 L30.9448052,40.6250752 L32.6100649,37.5582595 C32.6728896,37.4426864 32.6722403,37.3009717 32.6100649,37.1860865 C32.5465909,37.0712013 32.4311688,37 32.3056818,37 L32.2733766,37 C32.1477273,37 32.0316558,37.0712013 31.9683442,37.1867744 L30.0462662,40.7279216 C30.0157468,40.7843323 30,40.8481383 30,40.9133201 L30,41.0268295 C30,41.2323502 30.1573052,41.3996904 30.3512987,41.3996904 L32.4553571,41.3996904 L32.4553571,42.627655 C32.4553571,42.8333477 32.6126623,43 32.8066558,43 L32.8345779,43 C33.0292208,43 33.186526,42.8333477 33.186526,42.627655 L33.186526,41.3996904 L33.6487013,41.3996904 C33.8422078,41.3996904 34,41.2323502 34,41.0268295 L34,40.9972483 C34,40.7917276 33.8428571,40.6250752 33.6487013,40.6250752 L33.6487013,40.6250752 Z" id="Fill-17" fill="#FFFFFF"/>
                <path d="M36.9577261,39.1755324 C36.7022483,39.1755324 36.3925783,39.2172601 36.0901339,39.2893353 L36.0901339,37.775929 L38.4355403,37.775929 C38.6411268,37.775929 38.8078325,37.6088456 38.8078325,37.4027933 L38.8078325,37.3731356 C38.8078325,37.1669109 38.6411268,37 38.4355403,37 L35.688251,37 C35.4826645,37 35.3159588,37.1669109 35.3159588,37.3731356 L35.3159588,39.8274851 C35.3159588,39.9500819 35.3756563,40.0645745 35.4764711,40.1340633 C35.5765978,40.2040693 35.7051108,40.2202776 35.8193447,40.1771704 C36.1828629,40.0404345 36.62982,39.9514613 36.9577261,39.9514613 C37.7520298,39.9514613 38.2258249,40.3347702 38.2258249,40.97586 C38.2258249,41.7566169 37.7460084,42.2233813 36.9429308,42.2233813 C36.5216075,42.2233813 35.9865665,42.0602638 35.5793504,41.8083455 C35.405247,41.7012674 35.1774675,41.7545478 35.0685669,41.9276662 L35.0572123,41.9457712 C35.0040523,42.0300888 34.9873645,42.131132 35.0095575,42.2273472 C35.0310624,42.3244245 35.0907599,42.40788 35.1741988,42.4611604 C35.7009819,42.7930856 36.3789872,43 36.9429308,43 C38.173353,43 39,42.1863092 39,40.97586 C39,39.8988706 38.1800626,39.1755324 36.9577261,39.1755324 L36.9577261,39.1755324 Z" id="Fill-18" fill="#FFFFFF"/>
            </g>
        </g>
    </g>
</svg>