<?xml version="1.0" encoding="UTF-8" standalone="no"?>
<svg width="70px" height="39px" viewBox="0 0 70 39" version="1.1" xmlns="http://www.w3.org/2000/svg" xmlns:xlink="http://www.w3.org/1999/xlink">
    <!-- Generator: Sketch 40.3 (33839) - http://www.bohemiancoding.com/sketch -->
    <title>gps-photos</title>
    <desc>Created with Sketch.</desc>
    <defs/>
    <g id="TAG-IP-ACCUEIL" stroke="none" stroke-width="1" fill="none" fill-rule="evenodd">
        <g id="03-Forms" transform="translate(-59.000000, -3770.000000)" fill="#FFFFFF">
            <g id="gps-photos" transform="translate(59.000000, 3770.000000)">
                <g id="compass" transform="translate(0.000000, 2.000000)">
                    <path d="M27.7344543,35.7622471 L15.4999077,29.8059985 L3.26536101,35.7622471 C1.38958256,36.6749827 -0.619849046,34.7977917 0.180679587,32.8835133 L13.4163273,1.38042287 C14.1874745,-0.460140956 16.8124335,-0.460140956 17.5908102,1.38042287 L30.8192284,32.8835133 C31.6200351,34.7902454 29.6103254,36.6749827 27.7344543,35.7622471 L27.7344543,35.7622471 Z" id="Fill-1"/>
                </g>
                <path d="M36.0055189,0 L64.9944811,0 C67.7475165,0 70,2.03724619 70,5.00551891 L70,33.9944811 C70,36.9627538 67.7475165,39 64.9944811,39 L36.0055189,39 C33.2524835,39 31,36.9627538 31,33.9944811 L31,5.00551891 C31,2.03724619 33.2524835,0 36.0055189,0 L36.0055189,0 Z M59.773957,5 C58.7979772,5 58,5.81899572 58,6.8206825 L58,11.1793175 C58,12.1810043 58.7979772,13 59.773957,13 L64.2280657,13 C65.2020228,13 66,12.1810043 66,11.1793175 L66,6.8206825 C66,5.81899572 65.2020228,5 64.2280657,5 L59.773957,5 Z M66,17 L62.5959735,17 C62.9175669,18.0581473 63.0922596,19.1807731 63.0922596,20.3408864 C63.0922596,26.8192269 57.7105328,32.0709763 51.0727059,32.0709763 C44.434879,32.0709763 39.0531522,26.8192269 39.0531522,20.3408864 C39.0531522,19.1807731 39.227845,18.0581473 39.5494384,17 L36,17 L36,33.4515162 C36,34.3027324 36.690334,35 37.5374944,35 L64.4630019,35 C65.3101623,35 66,34.3027324 66,33.4515162 L66,17 Z M50.4997604,12 C46.3587884,12 43,15.3577882 43,19.5 C43,23.6422118 46.3587884,27 50.4997604,27 C54.6412116,27 58,23.6422118 58,19.5 C58,15.3577882 54.6431287,12 50.4997604,12 L50.4997604,12 Z" id="instagram-social-network-logo-of-photo-camera"/>
            </g>
        </g>
    </g>
</svg>