<?xml version="1.0" encoding="UTF-8" standalone="no"?>
<svg width="25px" height="33px" viewBox="0 0 25 33" version="1.1" xmlns="http://www.w3.org/2000/svg" xmlns:xlink="http://www.w3.org/1999/xlink">
    <!-- Generator: Sketch 40.3 (33839) - http://www.bohemiancoding.com/sketch -->
    <title>apple</title>
    <desc>Created with Sketch.</desc>
    <defs/>
    <g id="TAG-IP-ACCUEIL" stroke="none" stroke-width="1" fill="none" fill-rule="evenodd">
        <g id="02-Track" transform="translate(-506.000000, -2357.000000)" fill="#FFFFFF">
            <g id="apple" transform="translate(506.000000, 2357.000000)">
                <path d="M17.0102373,4.96659813 C18.2040457,3.65029899 19.011478,1.82269737 18.7904779,0 C17.0708933,0.0634749316 14.9866925,1.03998001 13.7526281,2.35627914 C12.6459957,3.52166767 11.6775394,5.38429961 11.9363474,7.1708457 C13.8546281,7.30494175 15.8149328,6.28135593 17.0102373,4.96659813 L17.0102373,4.96659813 Z M20.6721746,17.5534108 C20.6354545,13.4674748 23.8124157,11.5052167 23.9526317,11.4100744 C22.1670871,8.63553325 19.3860221,8.25566451 18.3952617,8.21292752 C16.0269569,7.95678586 13.7776521,9.69078647 12.5754117,9.69078647 C11.3779313,9.69078647 9.52547459,8.24683687 7.5614979,8.28523009 C4.97899298,8.32894793 2.60008013,9.87854896 1.27353566,12.3338938 C-1.40865729,17.2731683 0.586191419,24.5901605 3.19984035,28.5962274 C4.4781048,30.557925 5.99899334,32.7576887 7.99710605,32.6783801 C9.92545074,32.5989313 10.652235,31.3570366 12.9791958,31.3570366 C15.3071086,31.3570366 15.9584129,32.6783801 17.9951496,32.6384455 C20.0671103,32.5989313 21.3781508,30.6394756 22.6452633,28.6717527 C24.1109358,26.3974445 24.715456,24.1950185 24.75,24.0839024 C24.705392,24.0569991 20.7146066,22.4395794 20.6721746,17.5534108 L20.6721746,17.5534108 Z" id="Fill-1"/>
            </g>
        </g>
    </g>
</svg>