<?xml version="1.0" encoding="UTF-8" standalone="no"?>
<svg width="26px" height="33px" viewBox="0 0 26 33" version="1.1" xmlns="http://www.w3.org/2000/svg" xmlns:xlink="http://www.w3.org/1999/xlink">
    <!-- Generator: Sketch 40.3 (33839) - http://www.bohemiancoding.com/sketch -->
    <title>android-logo</title>
    <desc>Created with Sketch.</desc>
    <defs/>
    <g id="TAG-IP-ACCUEIL" stroke="none" stroke-width="1" fill="none" fill-rule="evenodd">
        <g id="02-Track" transform="translate(-455.000000, -2357.000000)" fill="#FFFFFF">
            <g id="android-logo" transform="translate(455.000000, 2357.000000)">
                <path d="M4.19383456,24.0058115 C4.19383456,24.5914605 4.38675095,25.0863691 4.77677756,25.4922905 C5.16512664,25.8977736 5.63861056,26.101611 6.19722932,26.101611 L7.54554713,26.101611 L7.56358062,30.4251565 C7.56358062,30.9700381 7.74685119,31.4338231 8.11045665,31.8156347 C8.47573964,32.1961313 8.91315658,32.3859412 9.42270748,32.3859412 C9.94525927,32.3859412 10.3877088,32.1961313 10.7529918,31.8156347 C11.1165973,31.4338231 11.2986097,30.9700381 11.2986097,30.4251565 L11.2986097,26.101611 L13.8132329,26.101611 L13.8132329,30.4251565 C13.8132329,30.9700381 13.9952453,31.4338231 14.3605283,31.8156347 C14.7241337,32.1961313 15.1678414,32.3859412 15.6908126,32.3859412 C16.2116869,32.3859412 16.6553946,32.1961313 17.0194194,31.8156347 C17.3847024,31.4338231 17.5662954,30.9700381 17.5662954,30.4251565 L17.5662954,26.101611 L18.9326467,26.101611 C19.4799421,26.101611 19.9467159,25.8977736 20.3367425,25.4922905 C20.7246722,25.0863691 20.918008,24.5914605 20.918008,24.0075649 L20.918008,11.3223008 L4.19383456,11.3223008 L4.19383456,24.0058115 Z" id="Fill-5"/>
                <path d="M23.665389,10.8839408 C23.1558381,10.8839408 22.7188406,11.0706822 22.3548157,11.44548 C21.9895327,11.8207163 21.8079397,12.2814327 21.8079397,12.8258759 L21.8079397,21.0157574 C21.8079397,21.5623924 21.9895327,22.0244239 22.3548157,22.4062355 C22.7188406,22.7862937 23.1558381,22.976542 23.665389,22.976542 C24.1879408,22.976542 24.6320679,22.7862937 24.9956733,22.4062355 C25.3609563,22.0244239 25.5429688,21.5623924 25.5429688,21.0157574 L25.5429688,12.8258759 C25.5429688,12.2814327 25.3609563,11.8207163 24.9956733,11.44548 C24.6320679,11.0706822 24.1879408,10.8839408 23.665389,10.8839408 L23.665389,10.8839408 Z" id="Fill-6"/>
                <path d="M1.8759022,10.8839408 C1.35460856,10.8839408 0.910900866,11.074189 0.54729541,11.4542472 C0.18201242,11.8360589 0,12.2932684 0,12.8258759 L0,21.0157574 C0,21.5623924 0.18201242,22.0244239 0.54729541,22.4062355 C0.910900866,22.7862937 1.35460856,22.976542 1.8759022,22.976542 C2.39845398,22.976542 2.83922599,22.7862937 3.19779885,22.4062355 C3.55511355,22.0244239 3.73502906,21.5623924 3.73502906,21.0157574 L3.73502906,12.8258759 C3.73502906,12.2932684 3.55343602,11.8360589 3.18815303,11.4542472 C2.82412819,11.074189 2.38671125,10.8839408 1.8759022,10.8839408 L1.8759022,10.8839408 Z" id="Fill-1"/>
                <path d="M16.765273,3.27789028 L18.0578128,0.782744689 C18.1429477,0.616606218 18.1135908,0.489920154 17.9676454,0.400933057 C17.8091184,0.325535123 17.6874972,0.36323409 17.6023624,0.515783399 L16.2917891,3.02934011 C15.1368071,2.49673261 13.9164012,2.22977132 12.628894,2.22977132 C11.3413868,2.22977132 10.1205616,2.49673261 8.96725705,3.02934011 L7.6554256,0.515783399 C7.56987137,0.36323409 7.44866956,0.325535123 7.28972323,0.400933057 C7.14419717,0.491673594 7.11484033,0.616606218 7.19997517,0.782744689 L8.49419251,3.27789028 C7.18194168,3.97619789 6.13641872,4.95067235 5.36013995,6.20087531 C4.58176425,7.45239335 4.19383456,8.81876172 4.19383456,10.3052408 L21.04592,10.3052408 C21.04592,8.81876172 20.6575709,7.45239335 19.8796146,6.20087531 C19.1029164,4.95067235 18.064523,3.97619789 16.765273,3.27789028 L16.765273,3.27789028 Z M9.28514971,6.90444324 C9.1459144,7.05173223 8.97899979,7.12537672 8.78398648,7.12537672 C8.58897317,7.12537672 8.42499424,7.05173223 8.29246907,6.90444324 C8.15826636,6.7589077 8.09284254,6.58575546 8.09284254,6.38235638 C8.09284254,6.17851895 8.15826636,6.00361327 8.29246907,5.85807773 C8.42499424,5.71254218 8.59065071,5.63889768 8.78398648,5.63889768 C8.97899979,5.63889768 9.1459144,5.71254218 9.28514971,5.85807773 C9.42438502,6.00361327 9.49484144,6.17851895 9.49484144,6.38235638 C9.49484144,6.58444038 9.42438502,6.7589077 9.28514971,6.90444324 L9.28514971,6.90444324 Z M16.9653189,6.90444324 C16.8306968,7.05173223 16.6671373,7.12537672 16.4738015,7.12537672 C16.2787882,7.12537672 16.1118736,7.05173223 15.9726383,6.90444324 C15.8317255,6.7589077 15.7629466,6.58575546 15.7629466,6.38235638 C15.7629466,6.17851895 15.8317255,6.00361327 15.9726383,5.85807773 C16.1118736,5.71254218 16.2787882,5.63889768 16.4738015,5.63889768 C16.6671373,5.63889768 16.8306968,5.71254218 16.9653189,5.85807773 C17.0978441,6.00361327 17.1649455,6.17851895 17.1649455,6.38235638 C17.1649455,6.58444038 17.0978441,6.7589077 16.9653189,6.90444324 L16.9653189,6.90444324 Z" id="Fill-3"/>
            </g>
        </g>
    </g>
</svg>