<?xml version="1.0" encoding="UTF-8" standalone="no"?>
<svg width="45px" height="34px" viewBox="0 0 45 34" version="1.1" xmlns="http://www.w3.org/2000/svg" xmlns:xlink="http://www.w3.org/1999/xlink">
    <!-- Generator: Sketch 40.3 (33839) - http://www.bohemiancoding.com/sketch -->
    <title>mail-black-envelope-symbol</title>
    <desc>Created with Sketch.</desc>
    <defs/>
    <g id="TAG-IP-ACCUEIL" stroke="none" stroke-width="1" fill="none" fill-rule="evenodd">
        <g id="02-Track" transform="translate(-368.000000, -2948.000000)" fill="#FF7D10">
            <g id="mail-black-envelope-symbol" transform="translate(368.000000, 2948.000000)">
                <path d="M44.4947217,28.1158735 C44.4947217,29.0803114 44.2216734,29.9745947 43.7841264,30.7614437 L29.8158917,15.2158045 L43.633129,3.19111041 C44.1706928,4.0396267 44.4947217,5.03640235 44.4947217,6.11321658 L44.4947217,28.1158735 Z M22.3742456,18.0384265 L41.5999561,1.30553059 C40.811378,0.875793299 39.9227829,0.61268664 38.9641976,0.61268664 L5.7837536,0.61268664 C4.8238722,0.61268664 3.93538516,0.875793299 3.14972326,1.30553059 L22.3742456,18.0384265 Z M27.7342225,17.0257506 L23.2843346,20.9018735 C23.0234914,21.1271633 22.6994626,21.2400768 22.3742456,21.2400768 C22.0489207,21.2400768 21.7248919,21.1271633 21.4641567,20.9014438 L17.0129726,17.0257506 L2.86749415,32.7703581 C3.7155856,33.2995796 4.709166,33.6164034 5.7837536,33.6164034 L38.9641976,33.6164034 C40.0393253,33.6164034 41.0329057,33.2995796 41.8804571,32.7703581 L27.7342225,17.0257506 Z M1.11536226,3.19111041 C0.577798437,4.0396267 0.253769608,5.03640235 0.253769608,6.11321658 L0.253769608,28.1158735 C0.253769608,29.0803114 0.525089747,29.9745947 0.963824781,30.7614437 L14.9308714,15.2127964 L1.11536226,3.19111041 Z" id="Fill-1"/>
            </g>
        </g>
    </g>
</svg>