<svg xml:space="preserve" viewBox="0 0 100 100" y="0" x="0" xmlns="http://www.w3.org/2000/svg" version="1.1" style="height: 100%; width: 100%; background: rgb(255, 255, 255, 0);" width="199px" height="199px"><g class="ldl-scale" style="transform-origin: 50% 50%; transform: rotate(0deg) scale(1, 1);"><g class="ldl-ani"><g class="ldl-layer"><g class="ldl-ani" style="transform-origin: 50px 50px; animation: 0.900901s linear -0.675676s infinite normal forwards running static-faa674dd-d79b-4ef3-bacf-0faaabb15ad2;"><path stroke="#333" stroke-width="8" fill="#fff" stroke-miterlimit="10" d="M74.026 88H25.974C18.256 88 12 81.744 12 74.026V25.974C12 18.256 18.256 12 25.974 12h48.052C81.744 12 88 18.256 88 25.974v48.052C88 81.744 81.744 88 74.026 88z" style="fill: rgb(255, 255, 255, 0); stroke: rgb(255, 255, 255);"></path></g></g><g class="ldl-layer"><g class="ldl-ani" style="transform-origin: 50px 50px; animation: 0.900901s linear -0.900901s infinite normal forwards running static-faa674dd-d79b-4ef3-bacf-0faaabb15ad2;"><path fill="#333" d="M73.265 51.254l-35.594 20.55A1.447 1.447 0 0 1 35.5 70.55v-41.1a1.448 1.448 0 0 1 2.171-1.254l35.594 20.55c.965.558.965 1.95 0 2.508z" style="fill: rgb(255, 255, 255);"></path></g></g></g></g></svg>