<?xml version="1.0" encoding="UTF-8"?>
<svg width="43px" height="33px" viewBox="0 0 43 33" version="1.1" xmlns="http://www.w3.org/2000/svg" xmlns:xlink="http://www.w3.org/1999/xlink">
    <!-- Generator: Sketch 60.1 (88133) - https://sketch.com -->
    <title>Group 4</title>
    <desc>Created with Sketch.</desc>
    <g id="TAG-IP-ACCUEIL" stroke="none" stroke-width="1" fill="none" fill-rule="evenodd">
        <g id="02-Track" transform="translate(-44.000000, -2950.000000)" fill="#0071BC">
            <g id="responsive-design-symbol" transform="translate(44.000000, 2950.000000)">
                <g id="Group-4" transform="translate(0.000000, 0.133886)">
                    <path d="M32.9308333,30.6602327 L28.2557327,30.6602327 C28.0872484,30.6602327 27.9493239,30.5223061 27.9493239,30.3544776 L27.9493239,29.2211633 C27.9493239,29.0527959 27.8109937,28.9154082 27.6425094,28.9154082 L21.100695,28.9154082 C20.9322107,28.9154082 20.7937453,29.0527959 20.7937453,29.2211633 L20.7937453,30.3544776 C20.7937453,30.5223061 20.655956,30.6602327 20.4874717,30.6602327 L16.9728302,30.6602327 C16.803805,30.6602327 16.6658805,30.7974857 16.6658805,30.9653143 L16.6658805,32.2765592 C16.6658805,32.4443878 16.803805,32.5821796 16.9728302,32.5821796 L32.9308333,32.5821796 C33.0993176,32.5821796 33.2372421,32.4443878 33.2372421,32.2765592 L33.2372421,30.9653143 C33.237783,30.7974857 33.0993176,30.6602327 32.9308333,30.6602327 L32.9308333,30.6602327 Z" id="Fill-1"></path>
                    <path d="M40.7857704,-1.47437618e-13 L7.42439623,-1.47437618e-13 C6.26339623,-1.47437618e-13 5.31955975,0.940702041 5.31955975,2.09718367 L5.31955975,7.56696735 C5.31955975,8.28986939 5.26560692,8.39196735 5.75266981,8.39196735 L6.58778931,8.39196735 C6.99601887,8.39196735 6.91258805,8.28986939 6.91258805,7.55336327 L6.91258805,2.09718367 C6.91258805,1.82092653 7.14705975,1.58682857 7.42439623,1.58682857 L40.7857704,1.58682857 C41.0631069,1.58682857 41.2975786,1.82092653 41.2975786,2.09718367 L41.2975786,22.5706531 L17.5131698,22.5706531 C17.5131698,22.5706531 16.674805,22.5690367 16.674805,23.6487429 L16.674805,26.2095429 C16.674805,27.287498 17.5400786,27.287498 17.5400786,27.287498 L40.7857704,27.287498 C41.9467704,27.287498 42.8911478,26.3467959 42.8911478,25.1908531 L42.8911478,2.09718367 C42.8911478,0.940702041 41.9467704,-1.47437618e-13 40.7857704,-1.47437618e-13 L40.7857704,-1.47437618e-13 Z M24.1051509,25.4770776 C23.581173,25.4770776 23.1564465,25.0540041 23.1564465,24.5320653 C23.1564465,24.0106653 23.581173,23.5877265 24.1051509,23.5877265 C24.6285881,23.5877265 25.0537201,24.0106653 25.0537201,24.5320653 C25.0537201,25.0540041 24.6285881,25.4770776 24.1051509,25.4770776 L24.1051509,25.4770776 Z" id="Fill-2"></path>
                    <path d="M13.4274937,10.2651551 L1.3585566,10.2651551 C0.609031447,10.2651551 2.30926389e-14,10.8722204 2.30926389e-14,11.6188286 L2.30926389e-14,31.3778816 C2.30926389e-14,32.123951 0.609031447,32.7315551 1.3585566,32.7315551 L13.4274937,32.7315551 C14.176478,32.7315551 14.7860503,32.123951 14.7860503,31.3778816 L14.7860503,11.6188286 C14.7860503,10.8722204 14.176478,10.2651551 13.4274937,10.2651551 L13.4274937,10.2651551 Z M5.90425157,11.6457673 L8.88179874,11.6457673 C9.02377987,11.6457673 9.13898742,11.7603918 9.13898742,11.9019551 C9.13898742,12.0435184 9.02377987,12.1586816 8.88179874,12.1586816 L5.90425157,12.1586816 C5.76213522,12.1586816 5.64706289,12.0435184 5.64706289,11.9019551 C5.64706289,11.7603918 5.76213522,11.6457673 5.90425157,11.6457673 L5.90425157,11.6457673 Z M7.37477044,31.7808857 C6.98655346,31.7808857 6.67176101,31.4673184 6.67176101,31.0800735 C6.67176101,30.6933673 6.98655346,30.3796653 7.37477044,30.3796653 C7.76298742,30.3796653 8.07777987,30.6933673 8.07777987,31.0800735 C8.07777987,31.4673184 7.76298742,31.7808857 7.37477044,31.7808857 L7.37477044,31.7808857 Z M13.618695,29.7220898 C13.618695,29.9025796 13.4734686,30.0503388 13.2964654,30.0503388 L1.49012579,30.0503388 C1.31258176,30.0503388 1.16789623,29.9025796 1.16789623,29.7220898 L1.16789623,13.3030408 C1.16789623,13.122551 1.31258176,12.9747918 1.49012579,12.9747918 L13.2964654,12.9747918 C13.4734686,12.9747918 13.618695,13.122551 13.618695,13.3030408 L13.618695,29.7220898 Z" id="Fill-3"></path>
                </g>
            </g>
        </g>
    </g>
</svg>