<?xml version="1.0" encoding="UTF-8" standalone="no"?>
<svg width="43px" height="33px" viewBox="0 0 43 33" version="1.1" xmlns="http://www.w3.org/2000/svg" xmlns:xlink="http://www.w3.org/1999/xlink">
    <!-- Generator: Sketch 40.3 (33839) - http://www.bohemiancoding.com/sketch -->
    <title>responsive-design-symbol</title>
    <desc>Created with Sketch.</desc>
    <defs/>
    <g id="TAG-IP-ACCUEIL" stroke="none" stroke-width="1" fill="none" fill-rule="evenodd">
        <g id="02-Track" transform="translate(-44.000000, -2950.000000)" fill="#FF7D10">
            <g id="responsive-design-symbol" transform="translate(44.000000, 2950.000000)">
                <path d="M32.9308333,30.7941184 L28.2557327,30.7941184 C28.0872484,30.7941184 27.9493239,30.6561918 27.9493239,30.4883633 L27.9493239,29.355049 C27.9493239,29.1866816 27.8109937,29.0492939 27.6425094,29.0492939 L21.100695,29.0492939 C20.9322107,29.0492939 20.7937453,29.1866816 20.7937453,29.355049 L20.7937453,30.4883633 C20.7937453,30.6561918 20.655956,30.7941184 20.4874717,30.7941184 L16.9728302,30.7941184 C16.803805,30.7941184 16.6658805,30.9313714 16.6658805,31.0992 L16.6658805,32.4104449 C16.6658805,32.5782735 16.803805,32.7160653 16.9728302,32.7160653 L32.9308333,32.7160653 C33.0993176,32.7160653 33.2372421,32.5782735 33.2372421,32.4104449 L33.2372421,31.0992 C33.237783,30.9313714 33.0993176,30.7941184 32.9308333,30.7941184 L32.9308333,30.7941184 Z" id="Fill-1"/>
                <path d="M40.7857704,0.133885714 L7.42439623,0.133885714 C6.26339623,0.133885714 5.31955975,1.07458776 5.31955975,2.23106939 L5.31955975,7.70085306 C5.31955975,8.4237551 5.26560692,8.52585306 5.75266981,8.52585306 L6.58778931,8.52585306 C6.99601887,8.52585306 6.91258805,8.4237551 6.91258805,7.68724898 L6.91258805,2.23106939 C6.91258805,1.95481224 7.14705975,1.72071429 7.42439623,1.72071429 L40.7857704,1.72071429 C41.0631069,1.72071429 41.2975786,1.95481224 41.2975786,2.23106939 L41.2975786,22.7045388 L17.5131698,22.7045388 C17.5131698,22.7045388 16.674805,22.7029224 16.674805,23.7826286 L16.674805,26.3434286 C16.674805,27.4213837 17.5400786,27.4213837 17.5400786,27.4213837 L40.7857704,27.4213837 C41.9467704,27.4213837 42.8911478,26.4806816 42.8911478,25.3247388 L42.8911478,2.23106939 C42.8911478,1.07458776 41.9467704,0.133885714 40.7857704,0.133885714 L40.7857704,0.133885714 Z M24.1051509,25.6109633 C23.581173,25.6109633 23.1564465,25.1878898 23.1564465,24.665951 C23.1564465,24.144551 23.581173,23.7216122 24.1051509,23.7216122 C24.6285881,23.7216122 25.0537201,24.144551 25.0537201,24.665951 C25.0537201,25.1878898 24.6285881,25.6109633 24.1051509,25.6109633 L24.1051509,25.6109633 Z" id="Fill-2"/>
                <path d="M13.4274937,10.3990408 L1.3585566,10.3990408 C0.609031447,10.3990408 0,11.0061061 0,11.7527143 L0,31.5117673 C0,32.2578367 0.609031447,32.8654408 1.3585566,32.8654408 L13.4274937,32.8654408 C14.176478,32.8654408 14.7860503,32.2578367 14.7860503,31.5117673 L14.7860503,11.7527143 C14.7860503,11.0061061 14.176478,10.3990408 13.4274937,10.3990408 L13.4274937,10.3990408 Z M5.90425157,11.7796531 L8.88179874,11.7796531 C9.02377987,11.7796531 9.13898742,11.8942776 9.13898742,12.0358408 C9.13898742,12.1774041 9.02377987,12.2925673 8.88179874,12.2925673 L5.90425157,12.2925673 C5.76213522,12.2925673 5.64706289,12.1774041 5.64706289,12.0358408 C5.64706289,11.8942776 5.76213522,11.7796531 5.90425157,11.7796531 L5.90425157,11.7796531 Z M7.37477044,31.9147714 C6.98655346,31.9147714 6.67176101,31.6012041 6.67176101,31.2139592 C6.67176101,30.8272531 6.98655346,30.513551 7.37477044,30.513551 C7.76298742,30.513551 8.07777987,30.8272531 8.07777987,31.2139592 C8.07777987,31.6012041 7.76298742,31.9147714 7.37477044,31.9147714 L7.37477044,31.9147714 Z M13.618695,29.8559755 C13.618695,30.0364653 13.4734686,30.1842245 13.2964654,30.1842245 L1.49012579,30.1842245 C1.31258176,30.1842245 1.16789623,30.0364653 1.16789623,29.8559755 L1.16789623,13.4369265 C1.16789623,13.2564367 1.31258176,13.1086776 1.49012579,13.1086776 L13.2964654,13.1086776 C13.4734686,13.1086776 13.618695,13.2564367 13.618695,13.4369265 L13.618695,29.8559755 Z" id="Fill-3"/>
            </g>
        </g>
    </g>
</svg>