<?xml version="1.0" encoding="UTF-8" standalone="no"?>
<svg width="48px" height="45px" viewBox="0 0 48 45" version="1.1" xmlns="http://www.w3.org/2000/svg" xmlns:xlink="http://www.w3.org/1999/xlink">
    <!-- Generator: Sketch 40.3 (33839) - http://www.bohemiancoding.com/sketch -->
    <title>sign</title>
    <desc>Created with Sketch.</desc>
    <defs/>
    <g id="TAG-IP-ACCUEIL" stroke="none" stroke-width="1" fill="none" fill-rule="evenodd">
        <g id="03-Forms" transform="translate(-693.000000, -3763.000000)" fill="#FFFFFF">
            <g id="sign" transform="translate(692.000000, 3763.000000)">
                <path d="M35.4582272,17.1830037 L42.5473615,19.7868 L36.6543174,35.8535108 C36.0976754,37.3624245 33.1051499,42.0892807 31.0211929,43.0507532 L30.5174549,44.4331574 C30.3817447,44.7850839 30.0505197,44.999 29.7008934,44.999 C29.6019859,44.999 29.5030784,44.9828988 29.404171,44.946096 C28.953337,44.7850839 28.7302202,44.2905466 28.8912323,43.8420128 L29.3673682,42.5286138 C28.3069883,40.4814596 29.0982479,34.5056092 29.5651831,33.2474144 L35.4582272,17.1830037 Z M45.7193005,0.182422556 C43.7710537,-0.528331007 41.4892817,0.946080107 40.8314322,2.7333148 L36.5646106,14.3698917 L43.6537449,16.9759881 L47.9205664,5.3302105 C48.4611072,3.87650095 47.6790482,0.902376813 45.7193005,0.182422556 L45.7193005,0.182422556 Z M32.8889336,16.5803583 C33.0867485,16.6516637 33.2937641,16.6884665 33.491579,16.6884665 C34.1931319,16.6884665 34.857882,16.2560339 35.1086009,15.5567812 L39.6192408,3.39806489 C39.952766,2.50099729 39.4927313,1.50272206 38.5956637,1.18069779 C37.6962959,0.847172653 36.7072214,1.30490715 36.3759964,2.19507423 L31.8653565,14.3606911 C31.5318313,15.2508581 31.991866,16.2468332 32.8889336,16.5803583 L32.8889336,16.5803583 Z M25.6295865,39.3842769 C25.1626513,38.9449438 24.587608,38.3952023 23.6445369,37.9742706 C22.8716787,37.6315448 22.1172218,37.6131434 21.5674804,37.6062429 C21.5145764,37.6062429 21.4524717,37.5970422 21.3788662,37.5970422 C21.0384405,36.6539711 20.3368877,36.0605264 19.2949091,35.8351094 C17.912505,35.538387 16.7969209,36.1939364 16.0332633,36.6976744 C16.1045687,36.3112453 16.2126769,35.8535108 16.2931829,35.5199856 C16.5646034,34.450405 16.8337237,33.3463218 16.6359088,32.313544 C16.4748966,31.4946823 15.7825444,30.8943371 14.9452814,30.8299322 C12.8084203,30.7126234 11.0556882,31.86271 9.50997174,32.9069887 C7.89294988,34.0018712 6.85097135,34.6574206 5.81819352,34.2893929 C4.55079801,33.8408591 4.42428847,30.4182012 5.03613458,27.3796722 C5.57437515,24.630965 6.59105177,19.5268804 9.17874678,17.2083057 C10.0505125,16.4285469 11.3064071,15.5820831 12.3506858,15.9961143 C13.5720779,16.4722502 14.5772536,18.4849019 14.8026706,20.874782 C14.8923774,21.8914586 15.7733438,22.6275141 16.8061216,22.5378073 C17.8135975,22.4481005 18.5588537,21.5487328 18.4691469,20.5343563 C18.1011192,16.6332623 16.267881,13.5786321 13.6985874,12.5734564 C12.1528709,11.9708109 9.68938526,11.8097988 6.71526113,14.4687992 C3.4812174,17.371618 2.28742744,22.2847882 1.41566174,26.6620181 C0.983229151,28.8448826 -0.0771507605,36.1042297 4.57840009,37.7580543 C7.416814,38.7632301 9.71698734,37.2106131 11.5686269,35.9616189 C11.8998518,35.7270012 12.233377,35.5038844 12.5554012,35.3060695 C12.2517784,36.6447704 12.0631642,38.0639774 12.870525,39.266968 C14.0666151,41.0818048 15.7641431,41.270419 17.912505,39.8604127 C17.993011,39.8075088 18.0919185,39.7431039 18.1816252,39.6809992 C18.3794402,40.1042311 18.7290665,40.5619656 19.3662145,40.8678887 C20.1390728,41.2543178 20.911931,41.270419 21.4777737,41.2796197 C21.721592,41.2888204 22.052817,41.2980211 22.1517244,41.3440246 C22.4944503,41.495836 22.7014659,41.6752495 23.0947955,42.0524779 C23.3915179,42.3399996 23.7066416,42.6275213 24.1114721,42.9334443 C24.4426971,43.1749625 24.8291262,43.3014721 25.2063546,43.3014721 C25.7652968,43.3014721 26.3219387,43.0415525 26.6807658,42.5654166 C27.2926119,41.7465549 27.1292996,40.5964682 26.312738,39.9869223 C26.0436177,39.7799067 25.8366021,39.5728911 25.6295865,39.3842769 L25.6295865,39.3842769 Z" id="Fill-1"/>
            </g>
        </g>
    </g>
</svg>