<?xml version="1.0" encoding="UTF-8"?>
<svg width="34px" height="40px" viewBox="0 0 34 40" version="1.1" xmlns="http://www.w3.org/2000/svg" xmlns:xlink="http://www.w3.org/1999/xlink">
    <!-- Generator: Sketch 60.1 (88133) - https://sketch.com -->
    <title>Group 2</title>
    <desc>Created with Sketch.</desc>
    <g id="TAG-IP-ACCUEIL" stroke="none" stroke-width="1" fill="none" fill-rule="evenodd">
        <g id="02-Track" transform="translate(-697.000000, -2942.000000)" fill="#0071BC">
            <g id="sms" transform="translate(697.000000, 2942.000000)">
                <g id="Group-2" transform="translate(0.000000, 0.246011)">
                    <path d="M17.3383258,18.9829611 C17.2886948,18.9414068 17.2608089,18.8852986 17.2143994,18.8406328 L17.2143994,33.5158041 C17.2143994,33.8067842 16.977721,34.0427601 16.6854721,34.0427601 L3.36262467,34.0427601 C3.07087907,34.0427601 2.83369736,33.8067842 2.83369736,33.5158041 L2.83369736,10.5493572 C2.83369736,10.2587786 3.07087907,10.0227023 3.36262467,10.0227023 L11.9944888,10.0227023 L11.9944888,7.33502619 L2.53369671,7.33502619 C1.13456619,7.33502619 -2.48689958e-14,8.46622498 -2.48689958e-14,9.86200585 L-2.48689958e-14,37.2272804 C-2.48689958e-14,38.6226598 1.13456619,39.7538586 2.53369671,39.7538586 L17.5148027,39.7538586 C18.9136312,39.7538586 20.0484994,38.6226598 20.0484994,37.2272804 L20.0484994,19.5628134 C19.7878613,19.6365872 19.5192701,19.679647 19.2474574,19.679647 C18.5412478,19.679647 17.8573873,19.42721 17.3383258,18.9829611 L17.3383258,18.9829611 Z M10.0242497,38.3254566 C9.13985183,38.3254566 8.42377647,37.6107036 8.42377647,36.7297336 C8.42377647,35.8486633 9.13985183,35.1339102 10.0242497,35.1339102 C10.9075402,35.1339102 11.6248236,35.8486633 11.6248236,36.7297336 C11.6248236,37.6107036 10.9071375,38.3254566 10.0242497,38.3254566 L10.0242497,38.3254566 Z" id="Fill-1"></path>
                    <path d="M31.5761751,7.46069873e-14 L17.0363117,7.46069873e-14 C15.74047,7.46069873e-14 14.6901658,1.04728733 14.6901658,2.33918259 L14.6901658,10.4046199 C14.6901658,11.6965152 15.74047,12.7438025 17.0363117,12.7438025 L20.4523929,12.7438025 L19.0005106,16.639061 C18.9623561,16.742244 18.9926582,16.8586761 19.0768195,16.929238 C19.1255444,16.9703908 19.1861486,16.9923724 19.2474574,16.9923724 C19.2915515,16.9923724 19.3363502,16.9810303 19.3765181,16.9582457 L26.8485476,12.7438025 L31.5761751,12.7438025 C32.8719162,12.7438025 33.9223211,11.6965152 33.9223211,10.4046199 L33.9223211,2.33918259 C33.9223211,1.04728733 32.8719162,7.46069873e-14 31.5761751,7.46069873e-14 L31.5761751,7.46069873e-14 Z" id="Fill-3"></path>
                </g>
            </g>
        </g>
    </g>
</svg>