<?xml version="1.0" encoding="UTF-8"?>
<svg width="45px" height="46px" viewBox="0 0 45 46" version="1.1" xmlns="http://www.w3.org/2000/svg" xmlns:xlink="http://www.w3.org/1999/xlink">
    <!-- Generator: Sketch 60.1 (88133) - https://sketch.com -->
    <title>Alerte</title>
    <desc>Created with Sketch.</desc>
    <g id="TAG-IP-ACCUEIL" stroke="none" stroke-width="1" fill="none" fill-rule="evenodd">
        <g id="02-Track" transform="translate(-43.000000, -8444.000000)" fill="#0071BC" fill-rule="nonzero">
            <g id="Alerte" transform="translate(43.000000, 8444.705882)">
                <path d="M23.153,25.263 L23.549,9.258 L20.744,9.258 L21.14,25.263 L23.153,25.263 Z M22.13,31.863 C22.592,31.863 23.0045,31.709 23.3675,31.401 C23.7305,31.093 23.912,30.62 23.912,29.982 C23.912,29.432 23.7525,28.981 23.4335,28.629 C23.1145,28.277 22.691,28.101 22.163,28.101 C21.657,28.101 21.239,28.277 20.909,28.629 C20.579,28.981 20.414,29.432 20.414,29.982 C20.414,30.598 20.59,31.0655 20.942,31.3845 C21.294,31.7035 21.69,31.863 22.13,31.863 Z" id="!"></path>
                <path d="M22.5,0 C10.3497355,0 0.5,9.8497355 0.5,22 C0.5,34.1502645 10.3497355,44 22.5,44 C34.6502645,44 44.5,34.1502645 44.5,22 C44.5,9.8497355 34.6502645,0 22.5,0 Z M22.5,1 C34.0979797,1 43.5,10.4020203 43.5,22 C43.5,33.5979797 34.0979797,43 22.5,43 C10.9020203,43 1.5,33.5979797 1.5,22 C1.5,10.4020203 10.9020203,1 22.5,1 Z" id="Oval-5" stroke="#0071BC"></path>
            </g>
        </g>
    </g>
</svg>