<?xml version="1.0" encoding="utf-8"?>
<svg version="1.1"
	 xmlns="http://www.w3.org/2000/svg" xmlns:xlink="http://www.w3.org/1999/xlink" xmlns:a="http://ns.adobe.com/AdobeSVGViewerExtensions/3.0/"
	 x="0px" y="0px" width="22px" height="20px" viewBox="0 -0.077 22 20" enable-background="new 0 -0.077 22 20"
	 xml:space="preserve">
<path fill="#FFFFFF" d="M19.043,10.593c-0.092-0.113-0.229-0.179-0.375-0.18h-1.876
	c-0.458-1.21-1.059-2.397-1.737-2.843c-2.354-1.547-8.598-1.547-10.951,0c-0.679,0.446-1.276,1.633-1.738,2.843H0.49
	c-0.147,0-0.287,0.067-0.38,0.18c-0.093,0.114-0.13,0.264-0.101,0.408l0.368,1.651c0.007,0.04,0.042,0.068,0.083,0.067h0.878
	c-0.515,0.604-0.795,1.369-0.792,2.162c-0.021,0.917,0.352,1.801,1.024,2.427H1.59v2.27c0,0.183,0.147,0.329,0.33,0.329h2.525
	c0.088,0.002,0.173-0.033,0.235-0.095s0.097-0.146,0.096-0.234V18.44h9.622v1.153c-0.001,0.088,0.034,0.173,0.096,0.234
	c0.062,0.063,0.146,0.097,0.234,0.096h2.537c0.088,0.001,0.173-0.033,0.234-0.096c0.063-0.062,0.097-0.146,0.096-0.234v-2.247
	c0.671-0.624,1.05-1.5,1.047-2.416c0.006-0.818-0.29-1.61-0.833-2.225h0.92c0.039,0.001,0.073-0.026,0.082-0.063l0.33-1.641
	C19.17,10.857,19.135,10.708,19.043,10.593z M4.922,8.784c1.873-1.221,7.465-1.221,9.341,0c0.375,0.24,0.837,1.202,1.265,2.386
	H3.657C4.085,9.986,4.554,9.023,4.922,8.784z"/>
<path fill="none" stroke="#8C5CF7" stroke-width="1.0065" stroke-linecap="round" d="M7.113,15.058
	c0.741,0.547,1.545,0.815,2.356,0.788c0.851-0.005,1.694-0.271,2.486-0.788"/>
<ellipse fill="#FFFFFF" cx="12.312" cy="11.545" rx="1.368" ry="1.351"/>
<ellipse fill="#FFFFFF" cx="6.84" cy="11.545" rx="1.368" ry="1.351"/>
<path fill="#FFFFFF" d="M20.2,1.418l1.465,1.338c0.081,0.075,0.114,0.182,0.087,0.284
	c-0.029,0.102-0.115,0.182-0.227,0.209L19.52,3.739l-2.004,0.49C17.403,4.254,17.283,4.224,17.2,4.15
	c-0.081-0.076-0.112-0.186-0.082-0.288l0.538-1.824l0.537-1.824c0.03-0.101,0.118-0.18,0.23-0.206
	c0.112-0.026,0.232,0.003,0.315,0.079L20.2,1.418z"/>
</svg>
